<svg xmlns="http://www.w3.org/2000/svg" width="15.251" height="15.914" viewBox="0 0 15.251 15.914">
  <path id="icons8-calendar" d="M5.315,0a.668.668,0,0,0-.663.663v.663H2.663A.641.641,0,0,0,2,1.989V4.31H17.251V1.989a.641.641,0,0,0-.663-.663H14.6V.663A.668.668,0,0,0,13.936,0h-.663a.668.668,0,0,0-.663.663v.663H6.642V.663A.668.668,0,0,0,5.979,0Zm0,.663h.663V2.652H5.315Zm7.957,0h.663V2.652h-.663ZM2,4.973V15.251a.641.641,0,0,0,.663.663H16.588a.641.641,0,0,0,.663-.663V4.973ZM5.315,6.962H6.973V8.62H5.315Zm2.321,0H9.294V8.62H7.636Zm2.321,0h1.658V8.62H9.957Zm2.321,0h1.658V8.62H12.278ZM5.315,9.283H6.973v1.658H5.315Zm2.321,0H9.294v1.658H7.636Zm2.321,0h1.658v1.658H9.957Zm2.321,0h1.658v1.658H12.278ZM5.315,11.6H6.973v1.658H5.315Zm2.321,0H9.294v1.658H7.636Zm2.321,0h1.658v1.658H9.957Zm2.321,0h1.658v1.658H12.278Z" transform="translate(-2)" fill="#022e3e"/>
</svg>
