<svg xmlns="http://www.w3.org/2000/svg" xmlns:xlink="http://www.w3.org/1999/xlink" width="135" height="135" viewBox="0 0 135 135">
  <defs>
    <clipPath id="clip-path">
      <rect id="Rechteck_14" data-name="Rechteck 14" width="135" height="135" transform="translate(734 1985)" fill="#fff" stroke="#707070" stroke-width="1"/>
    </clipPath>
  </defs>
  <g id="Gruppe_maskieren_5" data-name="Gruppe maskieren 5" transform="translate(-734 -1985)" clip-path="url(#clip-path)">
    <path id="icons8-add_to_database" d="M36.818,12.273A12.269,12.269,0,0,0,24.545,24.545V36.818a6.139,6.139,0,0,0,6.136,6.136h85.909a6.139,6.139,0,0,0,6.136-6.136V24.545a12.269,12.269,0,0,0-12.273-12.273ZM30.682,55.227a6.139,6.139,0,0,0-6.136,6.136V85.909a6.139,6.139,0,0,0,6.136,6.136H81.367a42.328,42.328,0,0,1,41.361-17.918V61.364a6.139,6.139,0,0,0-6.136-6.136Zm85.909,30.682a30.682,30.682,0,1,0,30.682,30.682A30.685,30.685,0,0,0,116.591,85.909Zm0,12.273a6.139,6.139,0,0,1,6.136,6.136v6.136h6.136a6.136,6.136,0,1,1,0,12.273h-6.136v6.136a6.136,6.136,0,1,1-12.273,0v-6.136h-6.136a6.136,6.136,0,0,1,0-12.273h6.136v-6.136A6.139,6.139,0,0,1,116.591,98.182Zm-85.909,6.136a6.139,6.139,0,0,0-6.136,6.136v12.273A12.269,12.269,0,0,0,36.818,135H77.831a42.5,42.5,0,0,1-2.385-30.682Z" transform="translate(715.591 1972.727)" fill="#fff"/>
  </g>
</svg>
