<?xml version="1.0" encoding="utf-8"?>
<svg xmlns="http://www.w3.org/2000/svg" viewBox="0 0 30 30" fill="#ffffff"><path d="M 21 4 C 20.448 4 20 4.448 20 5 L 20 25 C 20 25.552 20.448 26 21 26 L 25 26 C 25.552 26 26 25.552 26 25 L 26 5 C 26 4.448 25.552 4 25 4 L 21 4 z M 13 10 C 12.448 10 12 10.448 12 11 L 12 25 C 12 25.552 12.448 26 13 26 L 17 26 C 17.552 26 18 25.552 18 25 L 18 11 C 18 10.448 17.552 10 17 10 L 13 10 z M 5 16 C 4.448 16 4 16.448 4 17 L 4 25 C 4 25.552 4.448 26 5 26 L 9 26 C 9.552 26 10 25.552 10 25 L 10 17 C 10 16.448 9.552 16 9 16 L 5 16 z" fill="#ffffff"/></svg>
