<?xml version="1.0" encoding="utf-8"?>
<svg xmlns="http://www.w3.org/2000/svg" viewBox="0 0 30 30" fill="#ffffff"><path d="M 17.017578 4 A 1.0001 1.0001 0 0 0 16.705078 4.0449219 L 3.7050781 8.0449219 A 1.0001 1.0001 0 0 0 3.59375 9.9140625 L 12.59375 13.914062 A 1.0001 1.0001 0 0 0 13.294922 13.955078 L 26.294922 9.9550781 A 1.0001 1.0001 0 0 0 26.40625 8.0859375 L 17.40625 4.0859375 A 1.0001 1.0001 0 0 0 17.017578 4 z M 16.935547 6.0664062 L 23.154297 8.8300781 L 13.064453 11.933594 L 6.8457031 9.1699219 L 16.935547 6.0664062 z M 26.005859 11.990234 A 1.0001 1.0001 0 0 0 25.705078 12.044922 L 13.064453 15.933594 L 4.40625 12.085938 A 1.0001 1.0001 0 0 0 4.0195312 11.994141 A 1.0001 1.0001 0 0 0 3.59375 13.914062 L 12.59375 17.914062 A 1.0001 1.0001 0 0 0 13.294922 17.955078 L 26.294922 13.955078 A 1.0001 1.0001 0 0 0 26.005859 11.990234 z M 26.005859 15.990234 A 1.0001 1.0001 0 0 0 25.705078 16.044922 L 13.064453 19.933594 L 4.40625 16.085938 A 1.0001 1.0001 0 0 0 4.0195312 15.994141 A 1.0001 1.0001 0 0 0 3.59375 17.914062 L 12.59375 21.914062 A 1.0001 1.0001 0 0 0 13.294922 21.955078 L 26.294922 17.955078 A 1.0001 1.0001 0 0 0 26.005859 15.990234 z M 26.005859 19.990234 A 1.0001 1.0001 0 0 0 25.705078 20.044922 L 13.064453 23.933594 L 4.40625 20.085938 A 1.0001 1.0001 0 0 0 4.0195312 19.994141 A 1.0001 1.0001 0 0 0 3.59375 21.914062 L 12.59375 25.914062 A 1.0001 1.0001 0 0 0 13.294922 25.955078 L 26.294922 21.955078 A 1.0001 1.0001 0 0 0 26.005859 19.990234 z" fill="#ffffff"/></svg>
