<?xml version="1.0" encoding="utf-8"?>
<svg xmlns="http://www.w3.org/2000/svg" viewBox="0 0 30 30" fill="#ffffff"><path d="M 26.072266 4 A 2 2 0 0 0 24.34375 5 L 15 5 C 13.35503 5 12 6.3550302 12 8 L 12 11.832031 A 1.0001 1.0001 0 0 0 12 12.158203 L 12 14 L 7.8242188 14 A 3 3 0 0 0 5 12 A 3 3 0 0 0 2 15 A 3 3 0 0 0 5 18 A 3 3 0 0 0 7.8261719 16 L 12 16 L 12 17.832031 A 1.0001 1.0001 0 0 0 12 18.158203 L 12 22 C 12 23.64497 13.35503 25 15 25 L 24.197266 25 A 2 2 0 0 0 25.927734 26 A 2 2 0 0 0 27.927734 24 A 2 2 0 0 0 25.927734 22 A 2 2 0 0 0 24.199219 23 L 15 23 C 14.43497 23 14 22.56503 14 22 L 14 19 L 24.246094 19 A 2 2 0 0 0 25.976562 20 A 2 2 0 0 0 27.976562 18 A 2 2 0 0 0 25.976562 16 A 2 2 0 0 0 24.248047 17 L 14 17 L 14 15.167969 A 1.0001 1.0001 0 0 0 14 14.841797 L 14 13 L 24.292969 13 A 2 2 0 0 0 26.023438 14 A 2 2 0 0 0 28.023438 12 A 2 2 0 0 0 26.023438 10 A 2 2 0 0 0 24.294922 11 L 14 11 L 14 8 C 14 7.4349698 14.43497 7 15 7 L 24.341797 7 A 2 2 0 0 0 26.072266 8 A 2 2 0 0 0 28.072266 6 A 2 2 0 0 0 26.072266 4 z" fill="#ffffff"/></svg>
