<svg xmlns="http://www.w3.org/2000/svg" xmlns:xlink="http://www.w3.org/1999/xlink" width="273" height="273" viewBox="0 0 273 273">
  <defs>
    <clipPath id="clip-path">
      <rect id="Rechteck_29" data-name="Rechteck 29" width="273" height="273" transform="translate(1323.336 1100.336)" fill="#022e3e" stroke="#707070" stroke-width="1"/>
    </clipPath>
  </defs>
  <g id="Gruppe_maskieren_8" data-name="Gruppe maskieren 8" transform="translate(-1323.336 -1100.336)" clip-path="url(#clip-path)">
    <path id="icons8-update_user" d="M161.535,24.7A136.449,136.449,0,0,0,65.751,63.893V41.8a10.264,10.264,0,1,0-20.525,0V89.7a10.263,10.263,0,0,0,9.766,10.249,10.264,10.264,0,0,0,4.305.013H103.38a10.263,10.263,0,1,0,0-20.526H79.167a116.3,116.3,0,1,1-33.942,82.1,10.263,10.263,0,1,0-20.526,0c0,75.449,61.387,136.835,136.836,136.835s136.835-61.386,136.835-136.835S236.984,24.7,161.535,24.7Zm0,54.734a41.051,41.051,0,0,0,0,82.1c27.319,0,55.769-30.673,58.93-34.169a10.265,10.265,0,0,0,0-13.75C217.3,110.113,188.855,79.434,161.535,79.434ZM115.42,175.219a22.332,22.332,0,0,0-22.3,22.3v7.4c0,25.971,29.413,45.567,68.418,45.567s68.418-19.6,68.418-45.567v-7.4a22.332,22.332,0,0,0-22.3-22.3Z" transform="translate(1298.301 1075.301)" fill="#022e3e"/>
  </g>
</svg>
