<?xml version="1.0" encoding="UTF-8"?>
<svg xmlns="http://www.w3.org/2000/svg" xmlns:xlink="http://www.w3.org/1999/xlink" width="50pt" height="50pt" viewBox="0 0 50 50" version="1.1">
<g id="surface9512">
<path style=" stroke:none;fill-rule:nonzero;fill:rgb(100%,100%,100%);fill-opacity:1;" d="M 23.800781 16.199219 C 23.601562 16.199219 23.398438 16.101562 23.398438 15.800781 L 23.398438 13.199219 C 23.398438 13 23.5 12.800781 23.800781 12.800781 L 26.199219 12.800781 C 26.398438 12.800781 26.601562 12.898438 26.601562 13.199219 L 26.601562 15.800781 C 26.601562 16 26.5 16.199219 26.199219 16.199219 Z M 23.898438 34.300781 C 23.699219 34.300781 23.5 34.199219 23.5 33.898438 L 23.5 20.5 C 23.5 20.300781 23.601562 20.101562 23.898438 20.101562 L 26.199219 20.101562 C 26.398438 20.101562 26.601562 20.199219 26.601562 20.5 L 26.601562 34 C 26.601562 34.199219 26.5 34.398438 26.199219 34.398438 L 23.898438 34.398438 Z M 23.898438 34.300781 "/>
<path style="fill:none;stroke-width:2;stroke-linecap:round;stroke-linejoin:miter;stroke:rgb(100%,100%,100%);stroke-opacity:1;stroke-miterlimit:10;" d="M 25 2 C 11.699219 2 1 11.5 1 23.199219 C 1 29.199219 3.800781 34.601562 8.398438 38.5 C 7.101562 43.800781 0.800781 46 1.199219 47.5 C 5.199219 49.800781 16 45.398438 19.398438 43.898438 C 21.199219 44.300781 23 44.5 24.898438 44.5 C 38.199219 44.5 48.898438 35 48.898438 23.300781 C 48.898438 11.601562 38.300781 2 25 2 Z M 25 2 "/>
</g>
</svg>
