<svg xmlns="http://www.w3.org/2000/svg" width="400" height="78.734" viewBox="0 0 400 78.734">
  <g id="Gruppe_1" data-name="Gruppe 1" transform="translate(-114 -221.867)">
    <rect id="Rechteck_7" data-name="Rechteck 7" width="25.738" height="8.579" transform="translate(139.738 274.359)" fill="#fff"/>
    <rect id="Rechteck_8" data-name="Rechteck 8" width="51.476" height="8.579" transform="translate(114 240.125)" fill="#fff"/>
    <rect id="Rechteck_9" data-name="Rechteck 9" width="39.465" height="8.579" transform="translate(126.011 258.143)" fill="#fff"/>
    <path id="Pfad_3" data-name="Pfad 3" d="M103.975,24.543a13.741,13.741,0,0,1,10.567,4.288q3.984,4.288,3.984,11.217v28.41h-11.78V40.047a6.062,6.062,0,0,0-1.126-3.854,3.572,3.572,0,0,0-2.945-1.429H98.952a5.886,5.886,0,0,0-4.244,1.776,8,8,0,0,0-2.252,4.721v27.2H80.676V40.134a6.25,6.25,0,0,0-1.126-3.9A3.535,3.535,0,0,0,76.6,34.764H73.227a5.661,5.661,0,0,0-4.417,2.252,11.4,11.4,0,0,0-2.425,5.89V68.458H54.6V25.236H65.518V30.26A12.342,12.342,0,0,1,69.545,26.1a9.247,9.247,0,0,1,4.98-1.559h4.851a10.259,10.259,0,0,1,5.673,1.646,11.365,11.365,0,0,1,4.028,4.591,14.69,14.69,0,0,1,4.547-4.591,10.4,10.4,0,0,1,5.587-1.646Zm40.8,44.607a21.134,21.134,0,0,1-9.658-2.122,15.422,15.422,0,0,1-6.5-6.02,17.419,17.419,0,0,1-2.3-9.008V41.866a17.4,17.4,0,0,1,2.339-9.051,15.9,15.9,0,0,1,6.539-6.106,20.783,20.783,0,0,1,9.658-2.165h7.8a20.783,20.783,0,0,1,9.658,2.165,15.9,15.9,0,0,1,6.54,6.106,17.4,17.4,0,0,1,2.339,9.051V52a17.167,17.167,0,0,1-2.339,9.008,15.7,15.7,0,0,1-6.54,6.02,21.335,21.335,0,0,1-9.744,2.122Zm7.622-10.134a6.408,6.408,0,0,0,5.11-2.209,8.505,8.505,0,0,0,1.906-5.76v-8.4a8.505,8.505,0,0,0-1.906-5.76,6.311,6.311,0,0,0-5.024-2.209h-7.449a6.311,6.311,0,0,0-5.024,2.209,8.5,8.5,0,0,0-1.906,5.76v8.4a8.505,8.505,0,0,0,1.906,5.76,6.216,6.216,0,0,0,4.937,2.209Zm47.985,10.134a10.262,10.262,0,0,1-5.457-1.732,13.984,13.984,0,0,1-4.5-4.5v5.543H179.5V7.826h11.78V28.614a13.165,13.165,0,0,1,4.288-2.945,12.128,12.128,0,0,1,4.894-1.126h6.063a18.107,18.107,0,0,1,8.878,2.122,14.815,14.815,0,0,1,5.977,6.02,18.542,18.542,0,0,1,2.122,9.008v9.874a18.923,18.923,0,0,1-2.165,9.181,15.454,15.454,0,0,1-6.063,6.193,17.778,17.778,0,0,1-8.921,2.209Zm4.591-10.307a6.041,6.041,0,0,0,4.894-2.252,8.942,8.942,0,0,0,1.862-5.89V42.559a8.287,8.287,0,0,0-1.819-5.587,5.973,5.973,0,0,0-4.764-2.122h-5.37a7.736,7.736,0,0,0-5.8,2.425,10.181,10.181,0,0,0-2.685,6.41v7.449a9.856,9.856,0,0,0,2.815,5.587,7.307,7.307,0,0,0,5.24,2.122Zm34.3-37.678a7.5,7.5,0,0,1-5.414-1.949,6.806,6.806,0,0,1-2.035-5.154,6.806,6.806,0,0,1,2.035-5.154,8.493,8.493,0,0,1,10.827,0,6.806,6.806,0,0,1,2.035,5.154,6.806,6.806,0,0,1-2.035,5.154A7.5,7.5,0,0,1,239.27,21.165Zm-5.89,4.071h11.78V68.458H233.38Zm37.332,43.914q-6.063,0-9.7-3.161a10.628,10.628,0,0,1-3.638-8.445V54.253a10.391,10.391,0,0,1,3.725-8.4q3.724-3.118,9.874-3.118h5.63a21.129,21.129,0,0,1,6.106.953,17.8,17.8,0,0,1,5.413,2.6v-8.4a9.2,9.2,0,0,0-2.512-6.669,8.634,8.634,0,0,0-6.5-2.6h-6.756a10.606,10.606,0,0,0-6.583,1.906,6.087,6.087,0,0,0-2.512,5.11h-4.677a9.777,9.777,0,0,1,3.811-8.055q3.811-3.032,9.961-3.032h6.756q6.15,0,9.831,3.638a13.025,13.025,0,0,1,3.681,9.7V68.458h-4.417V61.7a17.226,17.226,0,0,1-5.543,5.457A12.755,12.755,0,0,1,276,69.151Zm5.37-4.158a11.2,11.2,0,0,0,6.973-2.6,16.265,16.265,0,0,0,5.067-6.843V50.874a14.06,14.06,0,0,0-5.067-2.945A19.1,19.1,0,0,0,276.6,46.8h-5.63a9.778,9.778,0,0,0-6.5,2.035,6.713,6.713,0,0,0-2.425,5.414v3.291a6.82,6.82,0,0,0,2.339,5.414,9.3,9.3,0,0,0,6.323,2.036Zm30.229-39.757h4.5v6.756a15.214,15.214,0,0,1,5.067-5.414,11.793,11.793,0,0,1,6.453-2.035h6.323a13.879,13.879,0,0,1,10.611,4.288q4.028,4.288,4.028,11.3v11.78q0,7.8-4.071,12.516a13.682,13.682,0,0,1-10.914,4.721h-6.323a11.614,11.614,0,0,1-6.106-1.819,14.825,14.825,0,0,1-4.894-4.851V85.694h-4.677Zm21.914,39.757a9.245,9.245,0,0,0,7.622-3.595q2.858-3.595,2.858-9.485V40.134a12.091,12.091,0,0,0-2.772-8.272,9.308,9.308,0,0,0-7.362-3.161h-6.236a9.81,9.81,0,0,0-6.973,3.075,16.255,16.255,0,0,0-4.374,7.406v14.9a14.659,14.659,0,0,0,3.9,7.622,9.726,9.726,0,0,0,7.276,3.291Zm27.544-39.757h4.5v6.756a15.215,15.215,0,0,1,5.067-5.414,11.793,11.793,0,0,1,6.453-2.035h6.323a13.879,13.879,0,0,1,10.611,4.288q4.028,4.288,4.028,11.3v11.78q0,7.8-4.071,12.516a13.682,13.682,0,0,1-10.914,4.721h-6.323a11.613,11.613,0,0,1-6.106-1.819,14.826,14.826,0,0,1-4.894-4.851V85.694h-4.677Zm21.914,39.757a9.245,9.245,0,0,0,7.622-3.595q2.858-3.595,2.858-9.485V40.134a12.091,12.091,0,0,0-2.772-8.272,9.308,9.308,0,0,0-7.362-3.161h-6.236a9.81,9.81,0,0,0-6.973,3.075,16.255,16.255,0,0,0-4.374,7.406v14.9a14.659,14.659,0,0,0,3.9,7.622,9.726,9.726,0,0,0,7.276,3.291Z" transform="translate(121.246 214.907)" fill="#fff"/>
  </g>
</svg>
