<?xml version="1.0" encoding="UTF-8"?>
<svg xmlns="http://www.w3.org/2000/svg" xmlns:xlink="http://www.w3.org/1999/xlink" width="50pt" height="50pt" viewBox="0 0 50 50" version="1.1">
<g id="surface8455">
<path style="fill:none;stroke-width:2;stroke-linecap:round;stroke-linejoin:round;stroke:rgb(100%,100%,100%);stroke-opacity:1;stroke-miterlimit:10;" d="M 38.898438 17.300781 L 1 12.699219 L 1 1 L 44.199219 6.101562 C 48.199219 7 49 9.601562 49 11 M 1 26 C 1 27.5 1.800781 31.101562 5.800781 31.898438 L 49 36.699219 L 49 49 L 5.800781 43.898438 C 1.800781 43.101562 1 40.5 1 39 Z M 1 26 "/>
<path style="fill:none;stroke-width:2;stroke-linecap:round;stroke-linejoin:round;stroke:rgb(100%,100%,100%);stroke-opacity:1;stroke-miterlimit:10;" d="M 6.898438 32.101562 L 44.101562 28.898438 C 48.199219 28.5 48.898438 25.398438 48.898438 24 L 48.898438 11 C 48.898438 12.5 48.300781 16.5 44.101562 16.898438 L 5.800781 20.199219 C 1.800781 21.101562 1 23.699219 1 25.101562 L 1 38.101562 M 6 2 L 6 8 M 11 2.601562 L 11 5.601562 M 16 3.300781 L 16 6.300781 M 21 3.898438 L 21 9.898438 M 26 4.601562 L 26 7.601562 M 31 5.199219 L 31 8.199219 M 36 5.800781 L 36 11.800781 M 41 6.5 L 41 9.5 M 46 7.101562 L 46 10.101562 M 6 32 L 6 38 M 11 32.601562 L 11 35.601562 M 16 33.300781 L 16 36.300781 M 21 33.898438 L 21 39.898438 M 26 34.601562 L 26 37.601562 M 31 35.199219 L 31 38.199219 M 36 35.800781 L 36 41.800781 M 41 36.5 L 41 39.5 M 46 37.101562 L 46 40.101562 M 6 21 L 6 27 M 11 20.5 L 11 23.5 M 16 20 L 16 23 M 21 19.5 L 21 25.5 M 26 19 L 26 22 M 31 18.5 L 31 21.5 M 36 18 L 36 24 M 41 17.5 L 41 20.5 M 46 17 L 46 20 "/>
</g>
</svg>
