<?xml version="1.0" encoding="UTF-8"?>
<svg xmlns="http://www.w3.org/2000/svg" xmlns:xlink="http://www.w3.org/1999/xlink" width="50pt" height="50pt" viewBox="0 0 50 50" version="1.1">
<g id="surface8658">
<path style="fill:none;stroke-width:2;stroke-linecap:round;stroke-linejoin:round;stroke:rgb(100%,100%,100%);stroke-opacity:1;stroke-miterlimit:10;" d="M 25 3 C 12.847656 3 3 12.847656 3 25 C 3 37.152344 12.847656 47 25 47 C 37.152344 47 47 37.152344 47 25 C 47 12.847656 37.152344 3 25 3 Z M 25 3 "/>
<path style="fill:none;stroke-width:2;stroke-linecap:round;stroke-linejoin:round;stroke:rgb(100%,100%,100%);stroke-opacity:1;stroke-miterlimit:10;" d="M 12 30 C 12 30 17 37 25 37 C 33 37 38 30 38 30 "/>
<path style=" stroke:none;fill-rule:nonzero;fill:rgb(100%,100%,100%);fill-opacity:1;" d="M 33 18 C 31.34375 18 30 19.34375 30 21 C 30 22.65625 31.34375 24 33 24 C 34.65625 24 36 22.65625 36 21 C 36 19.34375 34.65625 18 33 18 Z M 17 18 C 15.34375 18 14 19.34375 14 21 C 14 22.65625 15.34375 24 17 24 C 18.65625 24 20 22.65625 20 21 C 20 19.34375 18.65625 18 17 18 Z M 17 18 "/>
</g>
</svg>
