<svg xmlns="http://www.w3.org/2000/svg" xmlns:xlink="http://www.w3.org/1999/xlink" width="132" height="132" viewBox="0 0 132 132">
  <defs>
    <clipPath id="clip-path">
      <rect id="Rechteck_13" data-name="Rechteck 13" width="132" height="132" transform="translate(396.099 1968.099)" fill="#fff"/>
    </clipPath>
  </defs>
  <g id="Gruppe_maskieren_4" data-name="Gruppe maskieren 4" transform="translate(-396.099 -1968.099)" clip-path="url(#clip-path)">
    <path id="icons8-smiling" d="M82.7,16.6a66.1,66.1,0,1,0,66.1,66.1A66.1,66.1,0,0,0,82.7,16.6Zm13.22,49.574a9.915,9.915,0,0,1,19.83,0h0a3.306,3.306,0,0,1-3.3,3.3H99.224a3.306,3.306,0,0,1-3.3-3.3Zm-46.269,0a9.915,9.915,0,0,1,19.83,0h0a3.306,3.306,0,0,1-3.3,3.3H52.954a3.306,3.306,0,0,1-3.3-3.3ZM82.7,119.053c-14.172,0-26.387-12.843-32.369-31.4A3.752,3.752,0,0,1,53.853,82.7h57.691a3.752,3.752,0,0,1,3.523,4.951C109.086,106.21,96.871,119.053,82.7,119.053Z" transform="translate(379.4 1951.4)" fill="#fff"/>
  </g>
</svg>
