<svg xmlns="http://www.w3.org/2000/svg" width="755.282" height="544.999" viewBox="0 0 755.282 544.999">
  <g id="Gruppe_7" data-name="Gruppe 7" transform="translate(-600.527 -7327.777)">
    <g id="Gruppe_6" data-name="Gruppe 6">
      <path id="icons8-speech_bubble" d="M208.816,4C94.765,4,2,84.682,2,183.84c0,55.638,30,108.5,80.471,142.432-1.194,9.449-5.971,32.385-24.868,59.221l-9.94,14.085,17.773.07c48.824,0,81.841-29.926,92.695-41.412a236.567,236.567,0,0,0,50.685,5.444c114.051,0,206.816-80.682,206.816-179.84S322.867,4,208.816,4Z" transform="translate(598.527 7323.777)" fill="#fff"/>
      <path id="icons8-speech_bubble-2" data-name="icons8-speech_bubble" d="M214.563,4c117.22,0,212.563,80.009,212.563,178.34,0,55.174-30.83,107.6-82.707,141.244,1.227,9.37,6.137,32.115,25.56,58.727l10.217,13.968-18.267.07c-50.18,0-84.115-29.677-95.27-41.067a251.652,251.652,0,0,1-52.094,5.4C97.343,360.68,2,280.671,2,182.34S97.343,4,214.563,4Z" transform="translate(928.683 7476.428)" fill="#b7d12a"/>
      <path id="Pfad_9" data-name="Pfad 9" d="M45.3,35.136l.96-.864a4.739,4.739,0,0,0,1.664-3.648V28.512h4.352v2.112a9.267,9.267,0,0,1-.784,3.872A7.713,7.713,0,0,1,49.2,37.408l-1.088.864Zm7.3,0,.96-.864a4.739,4.739,0,0,0,1.664-3.648V28.512h4.352v2.112a9.267,9.267,0,0,1-.784,3.872A7.713,7.713,0,0,1,56.5,37.408l-1.088.864ZM62.836,9.6H74.644a7.628,7.628,0,0,1,3.456.752A5.544,5.544,0,0,1,80.436,12.5a6.085,6.085,0,0,1,.832,3.184v2.976a6.2,6.2,0,0,1-.864,3.28,5.835,5.835,0,0,1-2.416,2.208,7.882,7.882,0,0,1-3.6.784H67.252V32H62.836ZM74.324,21.088a2.438,2.438,0,0,0,1.824-.72,2.606,2.606,0,0,0,.7-1.9V15.872a2.471,2.471,0,0,0-.624-1.776,2.169,2.169,0,0,0-1.648-.656H67.252v7.648Zm9.248-5.056H87.6V18.08a4.527,4.527,0,0,1,1.744-1.52,5.09,5.09,0,0,1,2.384-.592h2.176v3.776H91.732a3.787,3.787,0,0,0-2.752,1.024,3.5,3.5,0,0,0-1.056,2.624V32H83.572Zm15.008-1.5a2.771,2.771,0,0,1-2-.72,2.514,2.514,0,0,1-.752-1.9A2.514,2.514,0,0,1,96.58,10a3.138,3.138,0,0,1,4,0,2.514,2.514,0,0,1,.752,1.9,2.514,2.514,0,0,1-.752,1.9A2.771,2.771,0,0,1,98.58,14.528Zm-2.176,1.5h4.352V32H96.4ZM111.252,32a2.416,2.416,0,0,1-1.552-.5,3.851,3.851,0,0,1-1.072-1.584l-5.5-13.888H107.7l3.776,10.976h.064l3.808-10.976h4.576L113.492,32Zm14.944.256a6.2,6.2,0,0,1-4.032-1.248,4.037,4.037,0,0,1-1.536-3.3V26.528a3.9,3.9,0,0,1,1.6-3.248,6.738,6.738,0,0,1,4.224-1.232H128.4a7.912,7.912,0,0,1,1.792.224,8.54,8.54,0,0,1,1.76.608V21.216a1.7,1.7,0,0,0-.528-1.3,1.95,1.95,0,0,0-1.392-.5h-2.752a2.309,2.309,0,0,0-1.44.416,1.337,1.337,0,0,0-.544,1.12h-4.224a4.649,4.649,0,0,1,1.712-3.76,6.8,6.8,0,0,1,4.5-1.424h2.752a6.719,6.719,0,0,1,4.544,1.488,4.956,4.956,0,0,1,1.728,3.952V32h-4.032V30.08a5.767,5.767,0,0,1-1.888,1.584,4.7,4.7,0,0,1-2.208.592Zm2.3-3.328a3.767,3.767,0,0,0,2.112-.608,3.47,3.47,0,0,0,1.344-1.632v-.544a3.941,3.941,0,0,0-1.424-.608,8.094,8.094,0,0,0-1.936-.224H126.58a1.937,1.937,0,0,0-1.248.384,1.245,1.245,0,0,0-.48,1.024v.832a1.176,1.176,0,0,0,.528.992,2.314,2.314,0,0,0,1.392.384ZM146.8,32a5.73,5.73,0,0,1-4.128-1.28,5.327,5.327,0,0,1-1.312-3.968V19.744h-2.816V16.032h2.944V11.2h4.224v4.832h4.16v3.712h-4.16V26.56a2.08,2.08,0,0,0,.336,1.312,1.3,1.3,0,0,0,1.072.416h2.752V32Zm11.84.256a8.086,8.086,0,0,1-3.568-.752,5.767,5.767,0,0,1-2.416-2.112,5.693,5.693,0,0,1-.864-3.12V22.144a6.342,6.342,0,0,1,.864-3.328,5.908,5.908,0,0,1,2.416-2.24,7.678,7.678,0,0,1,3.568-.8h2.56a6.942,6.942,0,0,1,4.928,1.728,6,6,0,0,1,1.856,4.608V25.5h-11.84v.768a2.233,2.233,0,0,0,.672,1.7,2.536,2.536,0,0,0,1.824.64h2.5a3.023,3.023,0,0,0,1.808-.5,1.528,1.528,0,0,0,.688-1.3h4.288a4.883,4.883,0,0,1-.864,2.848,5.523,5.523,0,0,1-2.416,1.92,8.907,8.907,0,0,1-3.568.672Zm5.056-9.888v-.256a2.89,2.89,0,0,0-.672-2,2.285,2.285,0,0,0-1.792-.752h-2.592a2.352,2.352,0,0,0-1.856.8,3.08,3.08,0,0,0-.7,2.112v.1ZM180.276,9.6h4.416v9.248h10.432V9.6h4.416V32h-4.416V22.688H184.692V32h-4.416Zm28.16,22.656a6.2,6.2,0,0,1-4.032-1.248,4.037,4.037,0,0,1-1.536-3.3V26.528a3.9,3.9,0,0,1,1.6-3.248,6.738,6.738,0,0,1,4.224-1.232h1.952a7.912,7.912,0,0,1,1.792.224,8.54,8.54,0,0,1,1.76.608V21.216a1.7,1.7,0,0,0-.528-1.3,1.95,1.95,0,0,0-1.392-.5h-2.752a2.309,2.309,0,0,0-1.44.416,1.337,1.337,0,0,0-.544,1.12h-4.224a4.649,4.649,0,0,1,1.712-3.76,6.8,6.8,0,0,1,4.5-1.424h2.752a6.719,6.719,0,0,1,4.544,1.488,4.956,4.956,0,0,1,1.728,3.952V32h-4.032V30.08a5.768,5.768,0,0,1-1.888,1.584,4.7,4.7,0,0,1-2.208.592Zm2.3-3.328a3.767,3.767,0,0,0,2.112-.608,3.47,3.47,0,0,0,1.344-1.632v-.544a3.941,3.941,0,0,0-1.424-.608,8.094,8.094,0,0,0-1.936-.224H208.82a1.937,1.937,0,0,0-1.248.384,1.245,1.245,0,0,0-.48,1.024v.832a1.176,1.176,0,0,0,.528.992,2.314,2.314,0,0,0,1.392.384Zm11.328-12.9H226.1v1.92a5.148,5.148,0,0,1,1.824-1.584,4.756,4.756,0,0,1,2.24-.592h1.92a5.467,5.467,0,0,1,4.112,1.6,5.809,5.809,0,0,1,1.552,4.224V32H233.4V21.76a2.353,2.353,0,0,0-.528-1.6,1.719,1.719,0,0,0-1.36-.608h-1.92a2.862,2.862,0,0,0-2,.816A3.98,3.98,0,0,0,226.42,22.5V32h-4.352Zm24.9,16.224a6.24,6.24,0,0,1-4.592-1.728,6.113,6.113,0,0,1-1.744-4.544V22.336a6.93,6.93,0,0,1,.832-3.44,5.783,5.783,0,0,1,2.336-2.3,7.2,7.2,0,0,1,3.488-.816h1.76a4.885,4.885,0,0,1,1.888.4,4.636,4.636,0,0,1,1.6,1.072V9.6h4.352V32h-4.032V29.888a5.01,5.01,0,0,1-1.728,1.712,4.337,4.337,0,0,1-2.272.656Zm2.368-3.744a2.874,2.874,0,0,0,2.192-.944,4.042,4.042,0,0,0,1.008-2.512V22.272a3.657,3.657,0,0,0-.976-2,2.429,2.429,0,0,0-1.776-.752h-1.952a2.654,2.654,0,0,0-2.064.864,3.251,3.251,0,0,0-.784,2.272v3.008a2.972,2.972,0,0,0,.7,2.064,2.338,2.338,0,0,0,1.824.784ZM266.8,38.5a6.288,6.288,0,0,1-4.272-1.456,5.432,5.432,0,0,1-1.872-3.824h4.288a1.617,1.617,0,0,0,.576,1.136,1.917,1.917,0,0,0,1.28.432h2.624a1.944,1.944,0,0,0,1.616-.816,3.408,3.408,0,0,0,.624-2.128V29.76a5.757,5.757,0,0,1-1.68,1.552,3.648,3.648,0,0,1-1.872.56H266a5.243,5.243,0,0,1-4.064-1.68,6.358,6.358,0,0,1-1.536-4.464v-9.7h4.352v9.76a2.646,2.646,0,0,0,.528,1.712,1.7,1.7,0,0,0,1.392.656h1.856a2.64,2.64,0,0,0,1.92-.88,4.886,4.886,0,0,0,1.216-2.32V16.032h4.352V31.84a7.2,7.2,0,0,1-.816,3.488,5.756,5.756,0,0,1-2.32,2.336,7.021,7.021,0,0,1-3.456.832Zm18.592-6.24a6.852,6.852,0,0,1-4.672-1.536,5.094,5.094,0,0,1-1.76-4.032h4.288a1.775,1.775,0,0,0,.592,1.392,2.244,2.244,0,0,0,1.552.528h2.88q1.92,0,1.92-1.056v-.544a.778.778,0,0,0-.32-.592,1.788,1.788,0,0,0-.864-.368l-5.536-.96a5.725,5.725,0,0,1-3.088-1.392,3.349,3.349,0,0,1-1.136-2.512V20.128a3.668,3.668,0,0,1,1.68-3.2,8.21,8.21,0,0,1,4.688-1.152h2.5a6.4,6.4,0,0,1,4.336,1.424,4.726,4.726,0,0,1,1.648,3.76h-4.288a1.429,1.429,0,0,0-.464-1.12,1.776,1.776,0,0,0-1.232-.416h-2.432q-2.08,0-2.08.96V20.9a.759.759,0,0,0,.272.592,1.617,1.617,0,0,0,.784.336l5.824,1.056a5.646,5.646,0,0,1,2.944,1.36,3.143,3.143,0,0,1,1.12,2.352v1.152a3.837,3.837,0,0,1-1.712,3.3,7.721,7.721,0,0,1-4.56,1.216Zm9.856,2.56.96-.864a4.739,4.739,0,0,0,1.664-3.648V28.192h4.352V30.3a9.267,9.267,0,0,1-.784,3.872,7.713,7.713,0,0,1-2.288,2.912l-1.088.864ZM78.324,74a3.1,3.1,0,0,1-2.24-.832,2.884,2.884,0,0,1-.864-2.176V51.6H85.908a10,10,0,0,1,4.5.96,7.157,7.157,0,0,1,3.008,2.72,7.656,7.656,0,0,1,1.072,4.064v6.272q0,4.128-2.144,6.256T86.036,74Zm7.584-3.9a3.943,3.943,0,0,0,3.1-1.184,5.089,5.089,0,0,0,1.056-3.488V59.536a3.814,3.814,0,0,0-1.184-2.928,4.369,4.369,0,0,0-3.1-1.1H79.636V70.1Zm16.7,4.16a6.2,6.2,0,0,1-4.032-1.248,4.037,4.037,0,0,1-1.536-3.3V68.528a3.9,3.9,0,0,1,1.6-3.248,6.739,6.739,0,0,1,4.224-1.232h1.952a7.913,7.913,0,0,1,1.792.224,8.54,8.54,0,0,1,1.76.608V63.216a1.7,1.7,0,0,0-.528-1.3,1.95,1.95,0,0,0-1.392-.5H103.7a2.309,2.309,0,0,0-1.44.416,1.337,1.337,0,0,0-.544,1.12H97.492A4.649,4.649,0,0,1,99.2,59.2a6.8,6.8,0,0,1,4.5-1.424h2.752A6.719,6.719,0,0,1,111,59.264a4.956,4.956,0,0,1,1.728,3.952V74h-4.032V72.08a5.768,5.768,0,0,1-1.888,1.584,4.7,4.7,0,0,1-2.208.592Zm2.3-3.328a3.767,3.767,0,0,0,2.112-.608,3.47,3.47,0,0,0,1.344-1.632v-.544a3.941,3.941,0,0,0-1.424-.608,8.093,8.093,0,0,0-1.936-.224H103a1.937,1.937,0,0,0-1.248.384,1.245,1.245,0,0,0-.48,1.024v.832a1.176,1.176,0,0,0,.528.992,2.313,2.313,0,0,0,1.392.384ZM123.22,74a5.73,5.73,0,0,1-4.128-1.28,5.327,5.327,0,0,1-1.312-3.968V61.744h-2.816V58.032h2.944V53.2h4.224v4.832h4.16v3.712h-4.16V68.56a2.08,2.08,0,0,0,.336,1.312,1.3,1.3,0,0,0,1.072.416h2.752V74Zm11.84.256a8.086,8.086,0,0,1-3.568-.752,5.767,5.767,0,0,1-2.416-2.112,5.693,5.693,0,0,1-.864-3.12V64.144a6.342,6.342,0,0,1,.864-3.328,5.908,5.908,0,0,1,2.416-2.24,7.678,7.678,0,0,1,3.568-.8h2.56a6.942,6.942,0,0,1,4.928,1.728,6,6,0,0,1,1.856,4.608V67.5h-11.84v.768a2.233,2.233,0,0,0,.672,1.7,2.536,2.536,0,0,0,1.824.64h2.5a3.023,3.023,0,0,0,1.808-.5,1.528,1.528,0,0,0,.688-1.3h4.288a4.883,4.883,0,0,1-.864,2.848,5.523,5.523,0,0,1-2.416,1.92,8.907,8.907,0,0,1-3.568.672Zm5.056-9.888v-.256a2.89,2.89,0,0,0-.672-2,2.285,2.285,0,0,0-1.792-.752H135.06a2.352,2.352,0,0,0-1.856.8,3.08,3.08,0,0,0-.7,2.112v.1Zm7.232-6.336h4.032v1.92a5.148,5.148,0,0,1,1.824-1.584,4.756,4.756,0,0,1,2.24-.592h1.92a5.467,5.467,0,0,1,4.112,1.6,5.809,5.809,0,0,1,1.552,4.224V74h-4.352V63.76a2.353,2.353,0,0,0-.528-1.6,1.719,1.719,0,0,0-1.36-.608h-1.92a2.862,2.862,0,0,0-2,.816A3.98,3.98,0,0,0,151.7,64.5V74h-4.352Zm24.864,16.224a6.852,6.852,0,0,1-4.672-1.536,5.094,5.094,0,0,1-1.76-4.032h4.288a1.775,1.775,0,0,0,.592,1.392,2.244,2.244,0,0,0,1.552.528h2.88q1.92,0,1.92-1.056v-.544a.778.778,0,0,0-.32-.592,1.788,1.788,0,0,0-.864-.368l-5.536-.96A5.725,5.725,0,0,1,167.2,65.7a3.349,3.349,0,0,1-1.136-2.512V62.128a3.668,3.668,0,0,1,1.68-3.2,8.21,8.21,0,0,1,4.688-1.152h2.5a6.4,6.4,0,0,1,4.336,1.424,4.726,4.726,0,0,1,1.648,3.76h-4.288a1.429,1.429,0,0,0-.464-1.12,1.776,1.776,0,0,0-1.232-.416H172.5q-2.08,0-2.08.96V62.9a.759.759,0,0,0,.272.592,1.617,1.617,0,0,0,.784.336L177.3,64.88a5.646,5.646,0,0,1,2.944,1.36,3.143,3.143,0,0,1,1.12,2.352v1.152a3.837,3.837,0,0,1-1.712,3.3,7.721,7.721,0,0,1-4.56,1.216Zm18.08,0a7.678,7.678,0,0,1-3.568-.8,5.8,5.8,0,0,1-2.4-2.24,6.435,6.435,0,0,1-.848-3.328V64.144a6.435,6.435,0,0,1,.848-3.328,5.824,5.824,0,0,1,2.384-2.24,7.581,7.581,0,0,1,3.552-.8h2.528a7.228,7.228,0,0,1,3.392.768,5.483,5.483,0,0,1,2.272,2.16,6.339,6.339,0,0,1,.8,3.216h-4.32a2.5,2.5,0,0,0-.592-1.744,1.991,1.991,0,0,0-1.552-.656h-2.464a2.25,2.25,0,0,0-1.808.816,3.189,3.189,0,0,0-.688,2.128v3.1a3.142,3.142,0,0,0,.7,2.128,2.3,2.3,0,0,0,1.824.816h2.464a2.054,2.054,0,0,0,1.648-.736,2.917,2.917,0,0,0,.624-1.952h4.32A6.223,6.223,0,0,1,197.6,72.5a6.566,6.566,0,0,1-4.784,1.76ZM202.036,51.6h4.352v8.032a5.342,5.342,0,0,1,1.744-1.344,4.524,4.524,0,0,1,2-.512h1.984a5.467,5.467,0,0,1,4.112,1.6A5.809,5.809,0,0,1,217.78,63.6V74h-4.352V63.76a2.353,2.353,0,0,0-.528-1.6,1.719,1.719,0,0,0-1.36-.608h-1.984a2.862,2.862,0,0,0-2,.816,3.98,3.98,0,0,0-1.168,2.128V74h-4.352Zm24.672,22.656a5.2,5.2,0,0,1-4.064-1.712,6.478,6.478,0,0,1-1.536-4.5V58.032h4.352v10.08a2.646,2.646,0,0,0,.528,1.712,1.7,1.7,0,0,0,1.392.656h1.856a2.64,2.64,0,0,0,1.92-.88,4.886,4.886,0,0,0,1.216-2.32V58.032h4.352V74h-4.032V71.952a5.982,5.982,0,0,1-1.808,1.664,4.033,4.033,0,0,1-2.064.64Zm20.7-.256a5.73,5.73,0,0,1-4.128-1.28,5.327,5.327,0,0,1-1.312-3.968V61.744h-2.816V58.032H242.1V53.2h4.224v4.832h4.16v3.712h-4.16V68.56a2.08,2.08,0,0,0,.336,1.312,1.3,1.3,0,0,0,1.072.416h2.752V74Zm4.864-2.176,8.64-10.112H252.66v-3.68h14.464v2.176l-8.64,10.112h8.48V74H252.276Zm15.232,4.992.96-.864a4.739,4.739,0,0,0,1.664-3.648V70.192h4.352V72.3a9.267,9.267,0,0,1-.784,3.872,7.713,7.713,0,0,1-2.288,2.912l-1.088.864ZM44.8,116a3.1,3.1,0,0,1-2.24-.832,2.884,2.884,0,0,1-.864-2.176V93.6H52.836a7.7,7.7,0,0,1,4.88,1.44,4.662,4.662,0,0,1,1.84,3.872v1.6a4.125,4.125,0,0,1-.528,2.016A4.274,4.274,0,0,1,57.54,104.1v.032a5.3,5.3,0,0,1,2.48,1.76,4.326,4.326,0,0,1,.944,2.72v1.664a5.108,5.108,0,0,1-1.9,4.176A7.889,7.889,0,0,1,53.924,116Zm8.032-13.12a2.221,2.221,0,0,0,1.664-.656,2.39,2.39,0,0,0,.64-1.744V99.392a1.716,1.716,0,0,0-.672-1.424,2.821,2.821,0,0,0-1.792-.528h-6.56v5.44Zm.768,9.28a3.645,3.645,0,0,0,2.176-.56,1.845,1.845,0,0,0,.768-1.584v-1.408a1.886,1.886,0,0,0-.672-1.5,2.659,2.659,0,0,0-1.792-.576H46.116v5.632Zm16.256,4.1a8.086,8.086,0,0,1-3.568-.752,5.766,5.766,0,0,1-2.416-2.112,5.693,5.693,0,0,1-.864-3.12v-4.128a6.342,6.342,0,0,1,.864-3.328,5.908,5.908,0,0,1,2.416-2.24,7.678,7.678,0,0,1,3.568-.8h2.56a6.942,6.942,0,0,1,4.928,1.728,6,6,0,0,1,1.856,4.608V109.5H67.364v.768a2.233,2.233,0,0,0,.672,1.7,2.536,2.536,0,0,0,1.824.64h2.5a3.023,3.023,0,0,0,1.808-.5,1.528,1.528,0,0,0,.688-1.3H79.14a4.883,4.883,0,0,1-.864,2.848,5.523,5.523,0,0,1-2.416,1.92,8.907,8.907,0,0,1-3.568.672Zm5.056-9.888v-.256a2.89,2.89,0,0,0-.672-2,2.285,2.285,0,0,0-1.792-.752H69.86a2.352,2.352,0,0,0-1.856.8,3.08,3.08,0,0,0-.7,2.112v.1ZM88.932,116a5.73,5.73,0,0,1-4.128-1.28,5.327,5.327,0,0,1-1.312-3.968v-7.008H80.676v-3.712H83.62V95.2h4.224v4.832H92v3.712h-4.16v6.816a2.08,2.08,0,0,0,.336,1.312,1.3,1.3,0,0,0,1.072.416H92V116Zm6.144-15.968h4.032v2.048a4.527,4.527,0,0,1,1.744-1.52,5.09,5.09,0,0,1,2.384-.592h2.176v3.776h-2.176a3.787,3.787,0,0,0-2.752,1.024,3.5,3.5,0,0,0-1.056,2.624V116H95.076Zm15.008-1.5a2.771,2.771,0,0,1-2-.72,2.786,2.786,0,0,1,0-3.808,3.138,3.138,0,0,1,4,0,2.786,2.786,0,0,1,0,3.808A2.771,2.771,0,0,1,110.084,98.528Zm-2.176,1.5h4.352V116h-4.352Zm14.848,16.224a8.086,8.086,0,0,1-3.568-.752,5.766,5.766,0,0,1-2.416-2.112,5.693,5.693,0,0,1-.864-3.12v-4.128a6.342,6.342,0,0,1,.864-3.328,5.908,5.908,0,0,1,2.416-2.24,7.678,7.678,0,0,1,3.568-.8h2.56a6.942,6.942,0,0,1,4.928,1.728,6,6,0,0,1,1.856,4.608V109.5H120.26v.768a2.233,2.233,0,0,0,.672,1.7,2.536,2.536,0,0,0,1.824.64h2.5a3.023,3.023,0,0,0,1.808-.5,1.528,1.528,0,0,0,.688-1.3h4.288a4.883,4.883,0,0,1-.864,2.848,5.523,5.523,0,0,1-2.416,1.92,8.907,8.907,0,0,1-3.568.672Zm5.056-9.888v-.256a2.89,2.89,0,0,0-.672-2,2.285,2.285,0,0,0-1.792-.752h-2.592a2.352,2.352,0,0,0-1.856.8,3.08,3.08,0,0,0-.7,2.112v.1Zm14.944,9.888a3.791,3.791,0,0,1-2.016-.64,5.167,5.167,0,0,1-1.664-1.664V116h-4.032V93.6H139.4v7.68a4.864,4.864,0,0,1,1.584-1.088,4.481,4.481,0,0,1,1.808-.416h2.24a6.69,6.69,0,0,1,3.28.784,5.473,5.473,0,0,1,2.208,2.224,6.85,6.85,0,0,1,.784,3.328v3.648a6.991,6.991,0,0,1-.8,3.392,5.709,5.709,0,0,1-2.24,2.288,6.568,6.568,0,0,1-3.3.816Zm1.7-3.808a2.232,2.232,0,0,0,1.808-.832,3.3,3.3,0,0,0,.688-2.176v-3.008a3.061,3.061,0,0,0-.672-2.064,2.206,2.206,0,0,0-1.76-.784h-1.984a2.858,2.858,0,0,0-2.144.9,3.761,3.761,0,0,0-.992,2.368V109.6a3.641,3.641,0,0,0,1.04,2.064,2.7,2.7,0,0,0,1.936.784Zm15.584,3.808a6.852,6.852,0,0,1-4.672-1.536,5.094,5.094,0,0,1-1.76-4.032h4.288a1.775,1.775,0,0,0,.592,1.392,2.244,2.244,0,0,0,1.552.528h2.88q1.92,0,1.92-1.056v-.544a.778.778,0,0,0-.32-.592,1.788,1.788,0,0,0-.864-.368l-5.536-.96a5.725,5.725,0,0,1-3.088-1.392,3.349,3.349,0,0,1-1.136-2.512v-1.056a3.668,3.668,0,0,1,1.68-3.2,8.21,8.21,0,0,1,4.688-1.152h2.5a6.4,6.4,0,0,1,4.336,1.424,4.726,4.726,0,0,1,1.648,3.76h-4.288a1.429,1.429,0,0,0-.464-1.12,1.776,1.776,0,0,0-1.232-.416h-2.432q-2.08,0-2.08.96v.512a.759.759,0,0,0,.272.592,1.617,1.617,0,0,0,.784.336l5.824,1.056a5.646,5.646,0,0,1,2.944,1.36,3.143,3.143,0,0,1,1.12,2.352v1.152a3.837,3.837,0,0,1-1.712,3.3,7.721,7.721,0,0,1-4.56,1.216Zm11.9-16.224h4.032v2.048a4.527,4.527,0,0,1,1.744-1.52,5.09,5.09,0,0,1,2.384-.592h2.176v3.776H180.1a3.787,3.787,0,0,0-2.752,1.024,3.5,3.5,0,0,0-1.056,2.624V116H171.94Zm16.8,16.224a6.2,6.2,0,0,1-4.032-1.248,4.037,4.037,0,0,1-1.536-3.3v-1.184a3.9,3.9,0,0,1,1.6-3.248A6.739,6.739,0,0,1,189,106.048h1.952a7.913,7.913,0,0,1,1.792.224,8.54,8.54,0,0,1,1.76.608v-1.664a1.7,1.7,0,0,0-.528-1.3,1.95,1.95,0,0,0-1.392-.5h-2.752a2.309,2.309,0,0,0-1.44.416,1.337,1.337,0,0,0-.544,1.12H183.62a4.649,4.649,0,0,1,1.712-3.76,6.8,6.8,0,0,1,4.5-1.424h2.752a6.719,6.719,0,0,1,4.544,1.488,4.956,4.956,0,0,1,1.728,3.952V116H194.82v-1.92a5.768,5.768,0,0,1-1.888,1.584,4.7,4.7,0,0,1-2.208.592Zm2.3-3.328a3.767,3.767,0,0,0,2.112-.608,3.47,3.47,0,0,0,1.344-1.632v-.544a3.941,3.941,0,0,0-1.424-.608,8.094,8.094,0,0,0-1.936-.224h-2.016a1.937,1.937,0,0,0-1.248.384,1.245,1.245,0,0,0-.48,1.024v.832a1.176,1.176,0,0,0,.528.992,2.314,2.314,0,0,0,1.392.384Zm18.3,3.072a5.73,5.73,0,0,1-4.128-1.28,5.327,5.327,0,0,1-1.312-3.968v-7.008h-2.816v-3.712h2.944V95.2h4.224v4.832h4.16v3.712h-4.16v6.816a2.08,2.08,0,0,0,.336,1.312,1.3,1.3,0,0,0,1.072.416h2.752V116Zm17.344.32a2.475,2.475,0,1,1,1.9-.72A2.574,2.574,0,0,1,226.692,116.32Zm6.976,0a2.475,2.475,0,1,1,1.9-.72A2.574,2.574,0,0,1,233.668,116.32Zm6.976,0a2.475,2.475,0,1,1,1.9-.72A2.574,2.574,0,0,1,240.644,116.32Zm20.608-.064a6.24,6.24,0,0,1-4.592-1.728,6.113,6.113,0,0,1-1.744-4.544v-3.648a6.93,6.93,0,0,1,.832-3.44,5.783,5.783,0,0,1,2.336-2.3,7.2,7.2,0,0,1,3.488-.816h1.76a4.885,4.885,0,0,1,1.888.4,4.636,4.636,0,0,1,1.6,1.072V93.6h4.352V116H267.14v-2.112a5.01,5.01,0,0,1-1.728,1.712,4.337,4.337,0,0,1-2.272.656Zm2.368-3.744a2.874,2.874,0,0,0,2.192-.944,4.043,4.043,0,0,0,1.008-2.512v-2.784a3.657,3.657,0,0,0-.976-2,2.429,2.429,0,0,0-1.776-.752h-1.952a2.654,2.654,0,0,0-2.064.864,3.251,3.251,0,0,0-.784,2.272v3.008a2.972,2.972,0,0,0,.7,2.064,2.338,2.338,0,0,0,1.824.784Zm16.32,3.744a6.2,6.2,0,0,1-4.032-1.248,4.037,4.037,0,0,1-1.536-3.3v-1.184a3.9,3.9,0,0,1,1.6-3.248,6.739,6.739,0,0,1,4.224-1.232h1.952a7.912,7.912,0,0,1,1.792.224,8.539,8.539,0,0,1,1.76.608v-1.664a1.7,1.7,0,0,0-.528-1.3,1.951,1.951,0,0,0-1.392-.5h-2.752a2.309,2.309,0,0,0-1.44.416,1.337,1.337,0,0,0-.544,1.12H274.82a4.649,4.649,0,0,1,1.712-3.76,6.8,6.8,0,0,1,4.5-1.424h2.752a6.719,6.719,0,0,1,4.544,1.488,4.956,4.956,0,0,1,1.728,3.952V116H286.02v-1.92a5.767,5.767,0,0,1-1.888,1.584,4.7,4.7,0,0,1-2.208.592Zm2.3-3.328a3.767,3.767,0,0,0,2.112-.608,3.47,3.47,0,0,0,1.344-1.632v-.544a3.941,3.941,0,0,0-1.424-.608,8.093,8.093,0,0,0-1.936-.224h-2.016a1.937,1.937,0,0,0-1.248.384,1.245,1.245,0,0,0-.48,1.024v.832a1.176,1.176,0,0,0,.528.992,2.313,2.313,0,0,0,1.392.384Zm16.992,3.328a6.852,6.852,0,0,1-4.672-1.536,5.094,5.094,0,0,1-1.76-4.032h4.288a1.775,1.775,0,0,0,.592,1.392,2.244,2.244,0,0,0,1.552.528h2.88q1.92,0,1.92-1.056v-.544a.778.778,0,0,0-.32-.592,1.788,1.788,0,0,0-.864-.368l-5.536-.96a5.725,5.725,0,0,1-3.088-1.392,3.349,3.349,0,0,1-1.136-2.512v-1.056a3.668,3.668,0,0,1,1.68-3.2,8.21,8.21,0,0,1,4.688-1.152h2.5a6.4,6.4,0,0,1,4.336,1.424,4.726,4.726,0,0,1,1.648,3.76h-4.288a1.429,1.429,0,0,0-.464-1.12,1.776,1.776,0,0,0-1.232-.416h-2.432q-2.08,0-2.08.96v.512a.759.759,0,0,0,.272.592,1.617,1.617,0,0,0,.784.336l5.824,1.056a5.646,5.646,0,0,1,2.944,1.36,3.143,3.143,0,0,1,1.12,2.352v1.152a3.837,3.837,0,0,1-1.712,3.3,7.721,7.721,0,0,1-4.56,1.216ZM49.412,164.5a6.3,6.3,0,0,1-4.256-1.456,5.407,5.407,0,0,1-1.888-3.824h4.288a1.617,1.617,0,0,0,.576,1.136,1.917,1.917,0,0,0,1.28.432h2.88a1.944,1.944,0,0,0,1.616-.816,3.408,3.408,0,0,0,.624-2.128v-1.5a4.712,4.712,0,0,1-1.552,1.12,4.2,4.2,0,0,1-1.744.416H49.028a6.436,6.436,0,0,1-4.688-1.728,6.054,6.054,0,0,1-1.776-4.544v-3.264a6.93,6.93,0,0,1,.832-3.44,5.783,5.783,0,0,1,2.336-2.3,7.132,7.132,0,0,1,3.456-.816h1.856a4.768,4.768,0,0,1,2.128.512,4.69,4.69,0,0,1,1.68,1.344v-1.6h4.032V157.84a7.2,7.2,0,0,1-.816,3.488,5.756,5.756,0,0,1-2.32,2.336,7.021,7.021,0,0,1-3.456.832Zm2.112-10.3a2.559,2.559,0,0,0,2.048-1.008,4.6,4.6,0,0,0,.96-2.64v-2.208a3.34,3.34,0,0,0-.864-2.048,2.462,2.462,0,0,0-1.856-.768h-2.24a2.4,2.4,0,0,0-1.92.864,3.383,3.383,0,0,0-.736,2.272v2.624a3.175,3.175,0,0,0,.672,2.112,2.154,2.154,0,0,0,1.728.8Zm17.28,4.064a8.086,8.086,0,0,1-3.568-.752,5.767,5.767,0,0,1-2.416-2.112,5.693,5.693,0,0,1-.864-3.12v-4.128a6.342,6.342,0,0,1,.864-3.328,5.908,5.908,0,0,1,2.416-2.24,7.678,7.678,0,0,1,3.568-.8h2.56a6.942,6.942,0,0,1,4.928,1.728,6,6,0,0,1,1.856,4.608V151.5H66.308v.768a2.233,2.233,0,0,0,.672,1.7,2.536,2.536,0,0,0,1.824.64h2.5a3.023,3.023,0,0,0,1.808-.5,1.528,1.528,0,0,0,.688-1.3h4.288a4.883,4.883,0,0,1-.864,2.848,5.523,5.523,0,0,1-2.416,1.92,8.907,8.907,0,0,1-3.568.672Zm5.056-9.888v-.256a2.89,2.89,0,0,0-.672-2,2.285,2.285,0,0,0-1.792-.752H68.8a2.352,2.352,0,0,0-1.856.8,3.08,3.08,0,0,0-.7,2.112v.1ZM81.092,135.6h4.352v8.032a5.342,5.342,0,0,1,1.744-1.344,4.524,4.524,0,0,1,2-.512h1.984a5.467,5.467,0,0,1,4.112,1.6,5.809,5.809,0,0,1,1.552,4.224V158H92.484V147.76a2.353,2.353,0,0,0-.528-1.6,1.719,1.719,0,0,0-1.36-.608H88.612a2.862,2.862,0,0,0-2,.816,3.98,3.98,0,0,0-1.168,2.128V158H81.092Zm26.24,22.4a5.73,5.73,0,0,1-4.128-1.28,5.327,5.327,0,0,1-1.312-3.968v-7.008H99.076v-3.712h2.944V137.2h4.224v4.832h4.16v3.712h-4.16v6.816a2.08,2.08,0,0,0,.336,1.312,1.3,1.3,0,0,0,1.072.416H110.4V158Zm21.056.256a6.24,6.24,0,0,1-4.592-1.728,6.113,6.113,0,0,1-1.744-4.544v-3.648a6.93,6.93,0,0,1,.832-3.44,5.783,5.783,0,0,1,2.336-2.3,7.2,7.2,0,0,1,3.488-.816h1.76a4.885,4.885,0,0,1,1.888.4,4.636,4.636,0,0,1,1.6,1.072V135.6h4.352V158h-4.032v-2.112a5.01,5.01,0,0,1-1.728,1.712,4.337,4.337,0,0,1-2.272.656Zm2.368-3.744a2.874,2.874,0,0,0,2.192-.944,4.043,4.043,0,0,0,1.008-2.512v-2.784a3.657,3.657,0,0,0-.976-2,2.429,2.429,0,0,0-1.776-.752h-1.952a2.654,2.654,0,0,0-2.064.864,3.251,3.251,0,0,0-.784,2.272v3.008a2.972,2.972,0,0,0,.7,2.064,2.338,2.338,0,0,0,1.824.784Zm17.44,3.744a7.808,7.808,0,0,1-3.568-.784,5.7,5.7,0,0,1-2.4-2.224,6.435,6.435,0,0,1-.848-3.328v-3.744a6.427,6.427,0,0,1,.864-3.344,5.875,5.875,0,0,1,2.416-2.256,7.678,7.678,0,0,1,3.568-.8h2.88a7.678,7.678,0,0,1,3.568.8,5.875,5.875,0,0,1,2.416,2.256,6.427,6.427,0,0,1,.864,3.344v3.744a6.342,6.342,0,0,1-.864,3.328,5.8,5.8,0,0,1-2.416,2.224,7.882,7.882,0,0,1-3.6.784Zm2.816-3.744a2.367,2.367,0,0,0,1.888-.816,3.142,3.142,0,0,0,.7-2.128v-3.1a3.142,3.142,0,0,0-.7-2.128,2.332,2.332,0,0,0-1.856-.816h-2.752a2.332,2.332,0,0,0-1.856.816,3.142,3.142,0,0,0-.7,2.128v3.1a3.142,3.142,0,0,0,.7,2.128,2.3,2.3,0,0,0,1.824.816Zm16.192,3.744a7.678,7.678,0,0,1-3.568-.8,5.8,5.8,0,0,1-2.4-2.24,6.435,6.435,0,0,1-.848-3.328v-3.744a6.435,6.435,0,0,1,.848-3.328,5.824,5.824,0,0,1,2.384-2.24,7.581,7.581,0,0,1,3.552-.8H169.7a7.228,7.228,0,0,1,3.392.768,5.483,5.483,0,0,1,2.272,2.16,6.339,6.339,0,0,1,.8,3.216h-4.32a2.5,2.5,0,0,0-.592-1.744,1.991,1.991,0,0,0-1.552-.656h-2.464a2.25,2.25,0,0,0-1.808.816,3.189,3.189,0,0,0-.688,2.128v3.1a3.142,3.142,0,0,0,.7,2.128,2.3,2.3,0,0,0,1.824.816h2.464a2.054,2.054,0,0,0,1.648-.736,2.917,2.917,0,0,0,.624-1.952h4.32a6.223,6.223,0,0,1-1.808,4.672,6.566,6.566,0,0,1-4.784,1.76ZM178.948,135.6H183.3v8.032a5.342,5.342,0,0,1,1.744-1.344,4.524,4.524,0,0,1,2-.512h1.984a5.467,5.467,0,0,1,4.112,1.6,5.809,5.809,0,0,1,1.552,4.224V158H190.34V147.76a2.353,2.353,0,0,0-.528-1.6,1.719,1.719,0,0,0-1.36-.608h-1.984a2.862,2.862,0,0,0-2,.816A3.98,3.98,0,0,0,183.3,148.5V158h-4.352Zm28.48,6.432h4.032v1.92a5.148,5.148,0,0,1,1.824-1.584,4.756,4.756,0,0,1,2.24-.592h1.92a5.467,5.467,0,0,1,4.112,1.6,5.809,5.809,0,0,1,1.552,4.224V158h-4.352V147.76a2.353,2.353,0,0,0-.528-1.6,1.719,1.719,0,0,0-1.36-.608h-1.92a2.862,2.862,0,0,0-2,.816,3.98,3.98,0,0,0-1.168,2.128V158h-4.352Zm21.952-1.5a2.771,2.771,0,0,1-2-.72,2.786,2.786,0,0,1,0-3.808,3.138,3.138,0,0,1,4,0,2.786,2.786,0,0,1,0,3.808A2.771,2.771,0,0,1,229.38,140.528Zm-2.176,1.5h4.352V158H227.2Zm14.816,16.224a7.678,7.678,0,0,1-3.568-.8,5.8,5.8,0,0,1-2.4-2.24,6.435,6.435,0,0,1-.848-3.328v-3.744a6.435,6.435,0,0,1,.848-3.328,5.824,5.824,0,0,1,2.384-2.24,7.581,7.581,0,0,1,3.552-.8h2.528a7.228,7.228,0,0,1,3.392.768,5.483,5.483,0,0,1,2.272,2.16,6.339,6.339,0,0,1,.8,3.216h-4.32a2.5,2.5,0,0,0-.592-1.744,1.991,1.991,0,0,0-1.552-.656h-2.464a2.25,2.25,0,0,0-1.808.816,3.189,3.189,0,0,0-.688,2.128v3.1a3.142,3.142,0,0,0,.7,2.128,2.3,2.3,0,0,0,1.824.816h2.464a2.054,2.054,0,0,0,1.648-.736,2.917,2.917,0,0,0,.624-1.952h4.32a6.223,6.223,0,0,1-1.808,4.672,6.566,6.566,0,0,1-4.784,1.76ZM253.764,135.6h4.352v8.032a5.342,5.342,0,0,1,1.744-1.344,4.524,4.524,0,0,1,2-.512h1.984a5.467,5.467,0,0,1,4.112,1.6,5.809,5.809,0,0,1,1.552,4.224V158h-4.352V147.76a2.353,2.353,0,0,0-.528-1.6,1.719,1.719,0,0,0-1.36-.608h-1.984a2.862,2.862,0,0,0-2,.816,3.98,3.98,0,0,0-1.168,2.128V158h-4.352ZM280,158a5.73,5.73,0,0,1-4.128-1.28,5.327,5.327,0,0,1-1.312-3.968v-7.008h-2.816v-3.712h2.944V137.2h4.224v4.832h4.16v3.712h-4.16v6.816a2.08,2.08,0,0,0,.336,1.312,1.3,1.3,0,0,0,1.072.416h2.752V158Zm8.128.32a2.475,2.475,0,1,1,1.9-.72A2.574,2.574,0,0,1,288.132,158.32Zm11.712-19.84-.96.864a4.739,4.739,0,0,0-1.664,3.648V145.1h-4.352v-2.112a9.267,9.267,0,0,1,.784-3.872,7.713,7.713,0,0,1,2.288-2.912l1.088-.864Zm6.976,0-.96.864a4.739,4.739,0,0,0-1.664,3.648V145.1h-4.352v-2.112a9.267,9.267,0,0,1,.784-3.872,7.713,7.713,0,0,1,2.288-2.912l1.088-.864Z" transform="translate(640 7427.88)" fill="#022e3e"/>
    </g>
    <path id="Pfad_8" data-name="Pfad 8" d="M54.8,70.272l1.92-1.728a9.478,9.478,0,0,0,3.328-7.3V57.024h8.7v4.224a18.535,18.535,0,0,1-1.568,7.744,15.426,15.426,0,0,1-4.576,5.824l-2.176,1.728Zm14.592,0,1.92-1.728a9.478,9.478,0,0,0,3.328-7.3V57.024h8.7v4.224a18.535,18.535,0,0,1-1.568,7.744A15.426,15.426,0,0,1,77.2,74.816l-2.176,1.728ZM96.08,64a6.19,6.19,0,0,1-4.48-1.664,5.768,5.768,0,0,1-1.728-4.352V19.2h21.376a20,20,0,0,1,8.992,1.92,14.313,14.313,0,0,1,6.016,5.44,15.311,15.311,0,0,1,2.144,8.128V47.232q0,8.256-4.288,12.512T111.5,64Zm15.168-7.808a7.886,7.886,0,0,0,6.208-2.368q2.112-2.368,2.112-6.976V35.072a7.628,7.628,0,0,0-2.368-5.856,8.737,8.737,0,0,0-6.208-2.208H98.7V56.192Zm35.648,8.32a15.616,15.616,0,0,1-7.136-1.568,11.4,11.4,0,0,1-4.8-4.448,12.87,12.87,0,0,1-1.7-6.656V44.352a12.854,12.854,0,0,1,1.728-6.688,11.75,11.75,0,0,1,4.832-4.512,15.356,15.356,0,0,1,7.136-1.6h5.76a15.356,15.356,0,0,1,7.136,1.6,11.75,11.75,0,0,1,4.832,4.512,12.854,12.854,0,0,1,1.728,6.688V51.84a12.685,12.685,0,0,1-1.728,6.656,11.6,11.6,0,0,1-4.832,4.448,15.764,15.764,0,0,1-7.2,1.568Zm5.632-7.488a4.735,4.735,0,0,0,3.776-1.632,6.284,6.284,0,0,0,1.408-4.256V44.928a6.284,6.284,0,0,0-1.408-4.256,4.663,4.663,0,0,0-3.712-1.632h-5.5a4.663,4.663,0,0,0-3.712,1.632,6.284,6.284,0,0,0-1.408,4.256v6.208a6.284,6.284,0,0,0,1.408,4.256,4.593,4.593,0,0,0,3.648,1.632Zm32.384,7.488a15.356,15.356,0,0,1-7.136-1.6,11.6,11.6,0,0,1-4.8-4.48,12.87,12.87,0,0,1-1.7-6.656V44.288a12.87,12.87,0,0,1,1.7-6.656,11.647,11.647,0,0,1,4.768-4.48,15.162,15.162,0,0,1,7.1-1.6H189.9a14.456,14.456,0,0,1,6.784,1.536,10.966,10.966,0,0,1,4.544,4.32,12.678,12.678,0,0,1,1.6,6.432h-8.64a5.009,5.009,0,0,0-1.184-3.488,3.983,3.983,0,0,0-3.1-1.312h-4.928a4.5,4.5,0,0,0-3.616,1.632,6.378,6.378,0,0,0-1.376,4.256v6.208a6.284,6.284,0,0,0,1.408,4.256,4.593,4.593,0,0,0,3.648,1.632h4.928a4.108,4.108,0,0,0,3.3-1.472,5.834,5.834,0,0,0,1.248-3.9h8.64a12.446,12.446,0,0,1-3.616,9.344,13.131,13.131,0,0,1-9.568,3.52ZM208.4,19.2h8.7V35.264a10.684,10.684,0,0,1,3.488-2.688,9.049,9.049,0,0,1,4-1.024h3.968a10.934,10.934,0,0,1,8.224,3.2,11.618,11.618,0,0,1,3.1,8.448V64h-8.7V43.52a4.706,4.706,0,0,0-1.056-3.2,3.437,3.437,0,0,0-2.72-1.216H223.44a5.723,5.723,0,0,0-4,1.632,7.96,7.96,0,0,0-2.336,4.256V64h-8.7Zm68.352,45.312a12.48,12.48,0,0,1-9.184-3.456,12.226,12.226,0,0,1-3.488-9.088v-7.3a13.86,13.86,0,0,1,1.664-6.88,11.566,11.566,0,0,1,4.672-4.608,14.4,14.4,0,0,1,6.976-1.632h3.52a9.77,9.77,0,0,1,3.776.8,9.272,9.272,0,0,1,3.2,2.144V19.2h8.7V64h-8.064V59.776a10.02,10.02,0,0,1-3.456,3.424,8.675,8.675,0,0,1-4.544,1.312Zm4.736-7.488a5.747,5.747,0,0,0,4.384-1.888,8.085,8.085,0,0,0,2.016-5.024V44.544a7.314,7.314,0,0,0-1.952-4,4.857,4.857,0,0,0-3.552-1.5h-3.9a5.308,5.308,0,0,0-4.128,1.728,6.5,6.5,0,0,0-1.568,4.544v6.016a5.945,5.945,0,0,0,1.408,4.128,4.676,4.676,0,0,0,3.648,1.568Zm32.64,7.488a12.39,12.39,0,0,1-8.064-2.5,8.074,8.074,0,0,1-3.072-6.592V53.056a7.8,7.8,0,0,1,3.2-6.5A13.477,13.477,0,0,1,314.64,44.1h3.9a15.825,15.825,0,0,1,3.584.448,17.079,17.079,0,0,1,3.52,1.216V42.432a3.392,3.392,0,0,0-1.056-2.592,3.9,3.9,0,0,0-2.784-.992h-5.5a4.618,4.618,0,0,0-2.88.832,2.674,2.674,0,0,0-1.088,2.24h-8.448a9.3,9.3,0,0,1,3.424-7.52,13.6,13.6,0,0,1,8.992-2.848h5.5a13.439,13.439,0,0,1,9.088,2.976,9.912,9.912,0,0,1,3.456,7.9V64h-8.064V60.16a11.535,11.535,0,0,1-3.776,3.168,9.4,9.4,0,0,1-4.416,1.184Zm4.608-6.656a7.535,7.535,0,0,0,4.224-1.216,6.94,6.94,0,0,0,2.688-3.264V52.288a7.882,7.882,0,0,0-2.848-1.216,16.188,16.188,0,0,0-3.872-.448H314.9a3.874,3.874,0,0,0-2.5.768,2.49,2.49,0,0,0-.96,2.048V55.1a2.352,2.352,0,0,0,1.056,1.984,4.627,4.627,0,0,0,2.784.768Zm33.984,6.656q-5.824,0-9.344-3.072a10.187,10.187,0,0,1-3.52-8.064h8.576a3.55,3.55,0,0,0,1.184,2.784,4.489,4.489,0,0,0,3.1,1.056h5.76q3.84,0,3.84-2.112V54.016a1.555,1.555,0,0,0-.64-1.184,3.576,3.576,0,0,0-1.728-.736l-11.072-1.92a11.45,11.45,0,0,1-6.176-2.784,6.7,6.7,0,0,1-2.272-5.024V40.256a7.337,7.337,0,0,1,3.36-6.4q3.36-2.3,9.376-2.3h4.992a12.8,12.8,0,0,1,8.672,2.848,9.451,9.451,0,0,1,3.3,7.52h-8.576a2.859,2.859,0,0,0-.928-2.24,3.552,3.552,0,0,0-2.464-.832H353.3q-4.16,0-4.16,1.92v1.024a1.517,1.517,0,0,0,.544,1.184,3.235,3.235,0,0,0,1.568.672L362.9,45.76a11.292,11.292,0,0,1,5.888,2.72,6.286,6.286,0,0,1,2.24,4.7v2.3A7.673,7.673,0,0,1,367.6,62.08q-3.424,2.432-9.12,2.432Zm-215.2,76.48a12.606,12.606,0,0,1-8.512-2.912,10.814,10.814,0,0,1-3.776-7.648h8.576a3.234,3.234,0,0,0,1.152,2.272,3.833,3.833,0,0,0,2.56.864h5.76a3.888,3.888,0,0,0,3.232-1.632,6.816,6.816,0,0,0,1.248-4.256v-3.008a9.424,9.424,0,0,1-3.1,2.24,8.4,8.4,0,0,1-3.488.832h-4.416a12.872,12.872,0,0,1-9.376-3.456,12.107,12.107,0,0,1-3.552-9.088v-6.528a13.86,13.86,0,0,1,1.664-6.88,11.566,11.566,0,0,1,4.672-4.608,14.264,14.264,0,0,1,6.912-1.632h3.712a9.536,9.536,0,0,1,4.256,1.024,9.381,9.381,0,0,1,3.36,2.688v-3.2h8.064V127.68a14.4,14.4,0,0,1-1.632,6.976,11.511,11.511,0,0,1-4.64,4.672,14.042,14.042,0,0,1-6.912,1.664Zm4.224-20.608a5.118,5.118,0,0,0,4.1-2.016,9.206,9.206,0,0,0,1.92-5.28v-4.416a6.68,6.68,0,0,0-1.728-4.1,4.924,4.924,0,0,0-3.712-1.536h-4.48a4.8,4.8,0,0,0-3.84,1.728,6.767,6.767,0,0,0-1.472,4.544v5.248a6.349,6.349,0,0,0,1.344,4.224,4.308,4.308,0,0,0,3.456,1.6Zm34.56,8.128a16.172,16.172,0,0,1-7.136-1.5,11.533,11.533,0,0,1-4.832-4.224,11.386,11.386,0,0,1-1.728-6.24v-8.256a12.685,12.685,0,0,1,1.728-6.656,11.816,11.816,0,0,1,4.832-4.48,15.356,15.356,0,0,1,7.136-1.6h5.12q6.144,0,9.856,3.456a11.991,11.991,0,0,1,3.712,9.216v6.784h-23.68v1.536a4.467,4.467,0,0,0,1.344,3.392,5.071,5.071,0,0,0,3.648,1.28H181.3a6.047,6.047,0,0,0,3.616-.992,3.056,3.056,0,0,0,1.376-2.592h8.576a9.765,9.765,0,0,1-1.728,5.7,11.046,11.046,0,0,1-4.832,3.84,17.815,17.815,0,0,1-7.136,1.344Zm10.112-19.776v-.512a5.779,5.779,0,0,0-1.344-4,4.57,4.57,0,0,0-3.584-1.5H176.3a4.7,4.7,0,0,0-3.712,1.6,6.161,6.161,0,0,0-1.408,4.224v.192ZM200.88,83.2h8.7V99.264a10.684,10.684,0,0,1,3.488-2.688,9.049,9.049,0,0,1,4-1.024h3.968a10.934,10.934,0,0,1,8.224,3.2,11.618,11.618,0,0,1,3.1,8.448V128h-8.7V107.52a4.706,4.706,0,0,0-1.056-3.2,3.437,3.437,0,0,0-2.72-1.216H215.92a5.723,5.723,0,0,0-4,1.632,7.96,7.96,0,0,0-2.336,4.256V128h-8.7ZM253.36,128q-5.632,0-8.256-2.56T242.48,117.5V103.488h-5.632V96.064h5.888V86.4h8.448v9.664h8.32v7.424h-8.32V117.12a4.159,4.159,0,0,0,.672,2.624,2.6,2.6,0,0,0,2.144.832h5.5V128Zm13.5-44.8H275.7v31.68h-8.832Zm4.416,45.44a4.949,4.949,0,1,1,3.808-1.44A5.148,5.148,0,0,1,271.28,128.64ZM283.056,83.2h8.7V98.752h-8.7Zm12.416,0h8.7V98.752h-8.7Z" transform="translate(930.683 7587.566)" fill="#022e3e"/>
  </g>
</svg>
