<?xml version="1.0" encoding="utf-8"?>
<!-- Generator: Adobe Illustrator 25.2.2, SVG Export Plug-In . SVG Version: 6.00 Build 0)  -->
<svg version="1.1" id="Ebene_1" xmlns="http://www.w3.org/2000/svg" xmlns:xlink="http://www.w3.org/1999/xlink" x="0px" y="0px"
	 viewBox="0 0 755.3 545" style="enable-background:new 0 0 755.3 545;" xml:space="preserve">
<style type="text/css">
	.st0{fill:#FFFFFF;}
	.st1{fill:#B7D12A;}
	.st2{fill:#022E3E;}
</style>
<g id="Gruppe_7" transform="translate(-600.527 -7327.777)">
	<g id="Gruppe_6">
		<path id="icons8-speech_bubble" class="st0" d="M807.3,7327.8c-114.1,0-206.8,80.7-206.8,179.8c0,55.6,30,108.5,80.5,142.4
			c-1.2,9.4-6,32.4-24.9,59.2l-9.9,14.1l17.8,0.1c48.8,0,81.8-29.9,92.7-41.4c16.6,3.6,33.6,5.5,50.7,5.4
			c114.1,0,206.8-80.7,206.8-179.8C1014.2,7408.5,921.4,7327.8,807.3,7327.8z"/>
		<path id="icons8-speech_bubble-2" class="st1" d="M1143.2,7480.4c117.2,0,212.6,80,212.6,178.3c0,55.2-30.8,107.6-82.7,141.2
			c1.2,9.4,6.1,32.1,25.6,58.7l10.2,14l-18.3,0.1c-50.2,0-84.1-29.7-95.3-41.1c-17.1,3.6-34.6,5.4-52.1,5.4
			c-117.2,0-212.6-80-212.6-178.3S1026,7480.4,1143.2,7480.4z"/>
		<path id="Pfad_9" class="st2" d="M685.3,7463l1-0.9c1.1-0.9,1.7-2.2,1.7-3.6v-2.1h4.4v2.1c0,1.3-0.2,2.7-0.8,3.9
			c-0.5,1.1-1.3,2.1-2.3,2.9l-1.1,0.9L685.3,7463z M692.6,7463l1-0.9c1.1-0.9,1.7-2.2,1.7-3.6v-2.1h4.4v2.1c0,1.3-0.2,2.7-0.8,3.9
			c-0.5,1.1-1.3,2.1-2.3,2.9l-1.1,0.9L692.6,7463z M702.8,7437.5h11.8c1.2,0,2.4,0.2,3.5,0.8c1,0.5,1.8,1.2,2.3,2.1
			c0.6,1,0.9,2.1,0.8,3.2v3c0,1.2-0.3,2.3-0.9,3.3c-0.6,1-1.4,1.7-2.4,2.2c-1.1,0.5-2.4,0.8-3.6,0.8h-7.1v7.1h-4.4L702.8,7437.5
			L702.8,7437.5z M714.3,7449c0.7,0,1.3-0.2,1.8-0.7s0.7-1.2,0.7-1.9v-2.6c0-0.7-0.2-1.3-0.6-1.8c-0.4-0.4-1-0.7-1.6-0.7h-7.3v7.6h7
			V7449z M723.6,7443.9h4v2c0.4-0.6,1-1.2,1.7-1.5c0.7-0.4,1.6-0.6,2.4-0.6h2.2v3.8h-2.2c-1,0-2,0.3-2.8,1c-0.7,0.7-1.1,1.6-1.1,2.6
			v8.6h-4.4v-15.9H723.6z M738.6,7442.4c-0.7,0-1.5-0.2-2-0.7s-0.8-1.2-0.8-1.9c0-0.7,0.2-1.4,0.8-1.9c1.2-1,2.8-1,4,0
			c0.5,0.5,0.8,1.2,0.8,1.9c0,0.7-0.2,1.4-0.8,1.9C740,7442.2,739.3,7442.4,738.6,7442.4L738.6,7442.4z M736.4,7443.9h4.4v16h-4.4
			V7443.9z M751.3,7459.9c-0.6,0-1.1-0.2-1.6-0.5c-0.5-0.4-0.9-1-1.1-1.6l-5.5-13.9h4.6l3.8,11h0.1l3.8-11h4.6l-6.4,16H751.3z
			 M766.2,7460.1c-1.4,0.1-2.9-0.4-4-1.2c-1-0.8-1.6-2-1.5-3.3v-1.2c0-1.3,0.6-2.5,1.6-3.2c1.2-0.9,2.7-1.3,4.2-1.2h1.9
			c0.6,0,1.2,0.1,1.8,0.2s1.2,0.3,1.8,0.6v-1.7c0-0.5-0.2-1-0.5-1.3c-0.4-0.3-0.9-0.5-1.4-0.5h-2.8c-0.5,0-1,0.1-1.4,0.4
			s-0.6,0.7-0.5,1.1h-4.2c0-1.5,0.6-2.8,1.7-3.8c1.3-1,2.9-1.5,4.5-1.4h2.8c1.6-0.1,3.3,0.5,4.5,1.5c1.1,1,1.8,2.4,1.7,4v10.8h-4
			v-1.9c-0.5,0.7-1.2,1.2-1.9,1.6s-1.4,0.6-2.2,0.6h-2.1V7460.1z M768.5,7456.8c0.7,0,1.5-0.2,2.1-0.6s1.1-1,1.3-1.6v-0.5
			c-0.4-0.3-0.9-0.5-1.4-0.6c-0.6-0.2-1.3-0.2-1.9-0.2h-2c-0.4,0-0.9,0.1-1.2,0.4c-0.3,0.2-0.5,0.6-0.5,1v0.8c0,0.4,0.2,0.8,0.5,1
			c0.4,0.3,0.9,0.4,1.4,0.4L768.5,7456.8L768.5,7456.8z M786.8,7459.9c-1.5,0.1-3-0.3-4.1-1.3c-1-1.1-1.4-2.5-1.3-4v-7h-2.8v-3.7
			h2.9v-4.8h4.2v4.8h4.2v3.7h-4.2v6.8c0,0.5,0.1,0.9,0.3,1.3c0.3,0.3,0.7,0.5,1.1,0.4h2.8v3.7h-3.1V7459.9z M798.6,7460.1
			c-1.2,0-2.5-0.2-3.6-0.8c-1-0.5-1.8-1.2-2.4-2.1c-0.6-0.9-0.9-2-0.9-3.1v-4.1c0-1.2,0.3-2.3,0.9-3.3c0.6-1,1.4-1.7,2.4-2.2
			c1.1-0.6,2.3-0.8,3.6-0.8h2.6c1.8-0.1,3.6,0.5,4.9,1.7c1.3,1.2,1.9,2.9,1.9,4.6v3.4h-11.8v0.8c0,0.6,0.2,1.3,0.7,1.7
			c0.5,0.4,1.2,0.7,1.8,0.6h2.5c0.6,0,1.3-0.1,1.8-0.5c0.4-0.3,0.7-0.8,0.7-1.3h4.3c0,1-0.3,2-0.9,2.8c-0.6,0.9-1.4,1.5-2.4,1.9
			c-1.1,0.5-2.3,0.7-3.6,0.7L798.6,7460.1z M803.7,7450.2v-0.3c0-0.7-0.2-1.4-0.7-2c-0.5-0.5-1.1-0.8-1.8-0.8h-2.6
			c-0.7,0-1.4,0.3-1.9,0.8c-0.5,0.6-0.7,1.3-0.7,2.1v0.1L803.7,7450.2z M820.3,7437.5h4.4v9.2h10.4v-9.2h4.4v22.4h-4.4v-9.3h-10.4
			v9.3h-4.4V7437.5z M848.4,7460.1c-1.4,0.1-2.9-0.4-4-1.2c-1-0.8-1.6-2-1.5-3.3v-1.2c0-1.3,0.6-2.5,1.6-3.2
			c1.2-0.9,2.7-1.3,4.2-1.2h2c0.6,0,1.2,0.1,1.8,0.2s1.2,0.3,1.8,0.6v-1.7c0-0.5-0.2-1-0.5-1.3c-0.4-0.3-0.9-0.5-1.4-0.5h-2.8
			c-0.5,0-1,0.1-1.4,0.4s-0.6,0.7-0.5,1.1h-4.2c0-1.5,0.6-2.8,1.7-3.8c1.3-1,2.9-1.5,4.5-1.4h2.8c1.6-0.1,3.3,0.5,4.5,1.5
			c1.1,1,1.8,2.4,1.7,4v10.8h-4v-1.9c-0.5,0.7-1.2,1.2-1.9,1.6s-1.4,0.6-2.2,0.6h-2.2V7460.1z M850.7,7456.8c0.7,0,1.5-0.2,2.1-0.6
			s1.1-1,1.3-1.6v-0.5c-0.4-0.3-0.9-0.5-1.4-0.6c-0.6-0.2-1.3-0.2-1.9-0.2h-2c-0.4,0-0.9,0.1-1.2,0.4c-0.3,0.2-0.5,0.6-0.5,1v0.8
			c0,0.4,0.2,0.8,0.5,1c0.4,0.3,0.9,0.4,1.4,0.4L850.7,7456.8L850.7,7456.8z M862.1,7443.9h4v1.9c0.5-0.7,1.1-1.2,1.8-1.6
			s1.5-0.6,2.2-0.6h1.9c1.5-0.1,3,0.5,4.1,1.6s1.6,2.7,1.6,4.2v10.4h-4.3v-10.2c0-0.6-0.2-1.1-0.5-1.6c-0.3-0.4-0.8-0.6-1.4-0.6
			h-1.9c-0.7,0-1.5,0.3-2,0.8c-0.6,0.6-1,1.3-1.2,2.1v9.5H862L862.1,7443.9z M887,7460.1c-1.7,0.1-3.4-0.5-4.6-1.7
			c-1.2-1.2-1.8-2.9-1.7-4.5v-3.6c0-1.2,0.3-2.4,0.8-3.4s1.4-1.8,2.3-2.3c1.1-0.6,2.3-0.8,3.5-0.8h1.8c0.6,0,1.3,0.1,1.9,0.4
			c0.6,0.2,1.1,0.6,1.6,1.1v-7.7h4.4v22.4h-4v-2.1c-0.4,0.7-1,1.3-1.7,1.7c-0.7,0.4-1.5,0.7-2.3,0.7L887,7460.1z M889.3,7456.4
			c0.8,0,1.6-0.3,2.2-0.9c0.6-0.7,1-1.6,1-2.5v-2.8c-0.1-0.8-0.5-1.5-1-2s-1.1-0.8-1.8-0.8h-2c-0.8,0-1.5,0.3-2.1,0.9
			c-0.5,0.6-0.8,1.4-0.8,2.3v3c0,0.8,0.2,1.5,0.7,2.1c0.5,0.5,1.1,0.8,1.8,0.8L889.3,7456.4z M906.8,7466.4
			c-1.6,0.1-3.1-0.5-4.3-1.5c-1.1-1-1.8-2.3-1.9-3.8h4.3c0,0.4,0.2,0.9,0.6,1.1c0.4,0.3,0.8,0.4,1.3,0.4h2.6c0.6,0,1.2-0.3,1.6-0.8
			c0.4-0.6,0.7-1.4,0.6-2.1v-2.1c-0.5,0.6-1,1.2-1.7,1.6c-0.6,0.4-1.2,0.5-1.9,0.6h-2c-1.5,0.1-3-0.6-4.1-1.7
			c-1.1-1.2-1.6-2.8-1.5-4.5v-9.7h4.4v9.8c0,0.6,0.2,1.2,0.5,1.7c0.3,0.4,0.8,0.7,1.4,0.7h1.9c0.7,0,1.4-0.3,1.9-0.9
			c0.6-0.6,1-1.5,1.2-2.3v-8.9h4.4v15.8c0,1.2-0.3,2.4-0.8,3.5c-0.5,1-1.3,1.8-2.3,2.3c-1.1,0.6-2.3,0.9-3.5,0.8H906.8z
			 M925.4,7460.1c-1.7,0.1-3.4-0.5-4.7-1.5c-1.2-1-1.8-2.5-1.8-4h4.3c0,0.5,0.2,1,0.6,1.4c0.4,0.4,1,0.6,1.6,0.5h2.9
			c1.3,0,1.9-0.4,1.9-1.1v-0.5c0-0.2-0.1-0.5-0.3-0.6c-0.3-0.2-0.5-0.3-0.9-0.4l-5.5-1c-1.1-0.1-2.2-0.6-3.1-1.4
			c-0.7-0.6-1.1-1.6-1.1-2.5v-1.1c0-1.3,0.6-2.5,1.7-3.2c1.4-0.8,3-1.2,4.7-1.2h2.5c1.6-0.1,3.1,0.4,4.3,1.4
			c1.1,0.9,1.7,2.3,1.6,3.8h-4.3c0-0.4-0.2-0.8-0.5-1.1c-0.3-0.3-0.8-0.4-1.2-0.4h-2.4c-1.4,0-2.1,0.3-2.1,1v0.5
			c0,0.2,0.1,0.4,0.3,0.6s0.5,0.3,0.8,0.3l5.8,1.1c1.1,0.2,2.1,0.6,2.9,1.4c0.7,0.6,1.1,1.4,1.1,2.4v1.2c0,1.3-0.6,2.6-1.7,3.3
			c-1.4,0.9-3,1.3-4.6,1.2L925.4,7460.1z M935.2,7462.7l1-0.9c1.1-0.9,1.7-2.2,1.7-3.6v-2.1h4.4v2.1c0,1.3-0.2,2.7-0.8,3.9
			c-0.5,1.1-1.3,2.1-2.3,2.9l-1.1,0.9L935.2,7462.7z M718.3,7501.9c-0.8,0-1.6-0.3-2.2-0.8c-0.6-0.6-0.9-1.4-0.9-2.2v-19.4h10.7
			c1.6,0,3.1,0.3,4.5,1c1.2,0.6,2.3,1.5,3,2.7s1.1,2.6,1.1,4.1v6.3c0,2.8-0.7,4.8-2.1,6.3c-1.4,1.4-3.5,2.1-6.3,2.1h-7.8V7501.9z
			 M725.9,7498c1.2,0.1,2.3-0.4,3.1-1.2c0.8-1,1.1-2.2,1.1-3.5v-5.9c0-1.1-0.4-2.2-1.2-2.9c-0.9-0.8-2-1.2-3.1-1.1h-6.1v14.6H725.9z
			 M742.6,7502.1c-1.4,0.1-2.9-0.4-4-1.2c-1-0.8-1.6-2-1.5-3.3v-1.2c0-1.3,0.6-2.5,1.6-3.2c1.2-0.9,2.7-1.3,4.2-1.2h2
			c0.6,0,1.2,0.1,1.8,0.2s1.2,0.3,1.8,0.6v-1.7c0-0.5-0.2-1-0.5-1.3c-0.4-0.3-0.9-0.5-1.4-0.5h-2.7c-0.5,0-1,0.1-1.4,0.4
			s-0.6,0.7-0.5,1.1h-4.2c0-1.4,0.6-2.8,1.7-3.8c1.3-1,2.9-1.5,4.5-1.4h2.8c1.6-0.1,3.3,0.5,4.5,1.5c1.1,1,1.8,2.4,1.7,4v10.8h-4
			v-1.9c-0.5,0.7-1.2,1.2-1.9,1.6s-1.4,0.6-2.2,0.6L742.6,7502.1z M744.9,7498.8c0.7,0,1.5-0.2,2.1-0.6s1.1-1,1.3-1.6v-0.5
			c-0.4-0.3-0.9-0.5-1.4-0.6c-0.6-0.2-1.3-0.2-1.9-0.2h-2c-0.4,0-0.9,0.1-1.2,0.4c-0.3,0.2-0.5,0.6-0.5,1v0.8c0,0.4,0.2,0.8,0.5,1
			c0.4,0.3,0.9,0.4,1.4,0.4L744.9,7498.8L744.9,7498.8z M763.2,7501.9c-1.5,0.1-3-0.3-4.1-1.3c-1-1.1-1.4-2.5-1.3-4v-7H755v-3.7h2.9
			v-4.8h4.2v4.8h4.2v3.7h-4.2v6.8c0,0.5,0.1,0.9,0.3,1.3c0.3,0.3,0.7,0.5,1.1,0.4h2.8v3.7h-3.1V7501.9z M775.1,7502.1
			c-1.2,0-2.5-0.2-3.6-0.8c-1-0.5-1.8-1.2-2.4-2.1c-0.6-0.9-0.9-2-0.9-3.1v-4.1c0-1.2,0.3-2.3,0.9-3.3c0.6-1,1.4-1.7,2.4-2.2
			c1.1-0.6,2.3-0.8,3.6-0.8h2.6c1.8-0.1,3.6,0.5,4.9,1.7c1.3,1.2,1.9,2.9,1.9,4.6v3.4h-11.8v0.8c0,0.6,0.2,1.3,0.7,1.7
			c0.5,0.4,1.2,0.7,1.8,0.6h2.5c0.6,0,1.3-0.1,1.8-0.5c0.4-0.3,0.7-0.8,0.7-1.3h4.3c0,1-0.3,2-0.9,2.8c-0.6,0.9-1.4,1.5-2.4,1.9
			c-1.1,0.5-2.3,0.7-3.6,0.7L775.1,7502.1z M780.1,7492.2v-0.3c0-0.7-0.2-1.4-0.7-2c-0.5-0.5-1.1-0.8-1.8-0.8H775
			c-0.7,0-1.4,0.3-1.9,0.8c-0.5,0.6-0.7,1.3-0.7,2.1v0.1L780.1,7492.2z M787.3,7485.9h4v1.9c0.5-0.7,1.1-1.2,1.8-1.6
			s1.5-0.6,2.2-0.6h1.9c1.5-0.1,3,0.5,4.1,1.6s1.6,2.7,1.6,4.2v10.4h-4.4v-10.2c0-0.6-0.2-1.1-0.5-1.6c-0.3-0.4-0.8-0.6-1.4-0.6
			h-1.9c-0.7,0-1.5,0.3-2,0.8c-0.6,0.6-1,1.3-1.2,2.1v9.5h-4.4v-15.9H787.3z M812.2,7502.1c-1.7,0.1-3.4-0.5-4.7-1.5
			c-1.2-1-1.8-2.5-1.8-4h4.3c0,0.5,0.2,1,0.6,1.4c0.4,0.4,1,0.6,1.6,0.5h2.9c1.3,0,1.9-0.4,1.9-1.1v-0.5c0-0.2-0.1-0.5-0.3-0.6
			c-0.3-0.2-0.5-0.3-0.9-0.4l-5.5-1c-1.1-0.1-2.2-0.6-3.1-1.4c-0.7-0.6-1.1-1.6-1.1-2.5v-1.1c0-1.3,0.6-2.5,1.7-3.2
			c1.4-0.8,3-1.2,4.7-1.2h2.5c1.6-0.1,3.1,0.4,4.3,1.4c1.1,0.9,1.7,2.3,1.6,3.8h-4.3c0-0.4-0.2-0.8-0.5-1.1
			c-0.3-0.3-0.8-0.4-1.2-0.4h-2.4c-1.4,0-2.1,0.3-2.1,1v0.5c0,0.2,0.1,0.4,0.3,0.6s0.5,0.3,0.8,0.3l5.8,1.1c1.1,0.2,2.1,0.6,2.9,1.4
			c0.7,0.6,1.1,1.4,1.1,2.4v1.2c0,1.3-0.6,2.6-1.7,3.3c-1.4,0.9-3,1.3-4.6,1.2L812.2,7502.1z M830.3,7502.1c-1.2,0-2.5-0.2-3.6-0.8
			c-1-0.5-1.8-1.3-2.4-2.2c-0.6-1-0.9-2.2-0.8-3.3v-3.7c0-1.2,0.3-2.3,0.8-3.3c0.6-1,1.4-1.7,2.4-2.2c1.1-0.6,2.3-0.8,3.6-0.8h2.5
			c1.2,0,2.3,0.2,3.4,0.8c1,0.5,1.7,1.2,2.3,2.2c0.5,1,0.8,2.1,0.8,3.2H835c0-0.6-0.2-1.3-0.6-1.7c-0.4-0.4-1-0.7-1.6-0.7h-2.5
			c-0.7,0-1.4,0.3-1.8,0.8c-0.5,0.6-0.7,1.4-0.7,2.1v3.1c0,0.8,0.2,1.5,0.7,2.1c0.5,0.5,1.1,0.8,1.8,0.8h2.5c0.6,0,1.2-0.2,1.6-0.7
			c0.4-0.6,0.7-1.2,0.6-2h4.3c0.1,1.7-0.6,3.4-1.8,4.7c-1.3,1.2-3,1.8-4.8,1.8L830.3,7502.1z M842,7479.5h4.4v8
			c0.5-0.6,1.1-1,1.7-1.3c0.6-0.3,1.3-0.5,2-0.5h2c1.5-0.1,3,0.5,4.1,1.6s1.6,2.7,1.6,4.2v10.4h-4.4v-10.2c0-0.6-0.2-1.1-0.5-1.6
			c-0.3-0.4-0.8-0.6-1.4-0.6h-2c-0.7,0-1.5,0.3-2,0.8c-0.6,0.6-1,1.3-1.2,2.1v9.5H842V7479.5z M866.7,7502.1c-1.5,0.1-3-0.6-4.1-1.7
			c-1.1-1.3-1.6-2.9-1.5-4.5v-10h4.4v10.1c0,0.6,0.2,1.2,0.5,1.7c0.3,0.4,0.8,0.7,1.4,0.7h1.9c0.7,0,1.4-0.3,1.9-0.9
			c0.6-0.6,1-1.5,1.2-2.3v-9.2h4.4v16h-4v-2c-0.5,0.7-1.1,1.2-1.8,1.7c-0.6,0.4-1.3,0.6-2.1,0.6h-2.2V7502.1z M887.4,7501.9
			c-1.5,0.1-3-0.3-4.1-1.3c-1-1.1-1.4-2.5-1.3-4v-7h-2.8v-3.7h2.9v-4.8h4.2v4.8h4.2v3.7h-4.2v6.8c0,0.5,0.1,0.9,0.3,1.3
			c0.3,0.3,0.7,0.5,1.1,0.4h2.8v3.7h-3.1V7501.9z M892.3,7499.7l8.6-10.1h-8.3v-3.7h14.5v2.2l-8.6,10.1h8.5v3.7h-14.7V7499.7z
			 M907.5,7504.7l1-0.9c1.1-0.9,1.7-2.2,1.7-3.6v-2.1h4.4v2.1c0,1.3-0.2,2.7-0.8,3.9c-0.5,1.1-1.3,2.1-2.3,2.9l-1.1,0.9
			L907.5,7504.7z M684.8,7543.9c-0.8,0-1.6-0.3-2.2-0.8c-0.6-0.6-0.9-1.4-0.9-2.2v-19.4h11.1c1.7-0.1,3.5,0.4,4.9,1.4
			c1.2,0.9,1.9,2.4,1.8,3.9v1.6c0,0.7-0.2,1.4-0.5,2c-0.4,0.6-0.9,1.2-1.5,1.6l0,0c1,0.3,1.8,0.9,2.5,1.8c0.6,0.8,0.9,1.7,0.9,2.7
			v1.7c0.1,1.6-0.6,3.2-1.9,4.2c-1.5,1.1-3.3,1.6-5.1,1.5L684.8,7543.9L684.8,7543.9z M692.8,7530.8c0.6,0,1.2-0.2,1.7-0.7
			c0.4-0.5,0.7-1.1,0.6-1.7v-1.1c0-0.6-0.2-1.1-0.7-1.4c-0.5-0.4-1.2-0.6-1.8-0.5H686v5.4L692.8,7530.8L692.8,7530.8z M693.6,7540
			c0.8,0,1.5-0.1,2.2-0.6c0.5-0.4,0.8-1,0.8-1.6v-1.4c0-0.6-0.2-1.1-0.7-1.5s-1.1-0.6-1.8-0.6h-8v5.6L693.6,7540z M709.9,7544.1
			c-1.2,0-2.5-0.2-3.6-0.8c-1-0.5-1.8-1.2-2.4-2.1c-0.6-0.9-0.9-2-0.9-3.1v-4.1c0-1.2,0.3-2.3,0.9-3.3c0.6-1,1.4-1.7,2.4-2.2
			c1.1-0.6,2.3-0.8,3.6-0.8h2.6c1.8-0.1,3.6,0.5,4.9,1.7c1.3,1.2,1.9,2.9,1.9,4.6v3.4h-11.8v0.8c0,0.6,0.2,1.3,0.7,1.7
			c0.5,0.4,1.2,0.7,1.8,0.6h2.5c0.6,0,1.3-0.1,1.8-0.5c0.4-0.3,0.7-0.8,0.7-1.3h4.3c0,1-0.3,2-0.9,2.8c-0.6,0.9-1.4,1.5-2.4,1.9
			c-1.1,0.5-2.3,0.7-3.6,0.7L709.9,7544.1z M714.9,7534.3v-0.3c0-0.7-0.2-1.4-0.7-2c-0.5-0.5-1.1-0.8-1.8-0.8h-2.6
			c-0.7,0-1.4,0.3-1.9,0.8c-0.5,0.6-0.7,1.3-0.7,2.1v0.1L714.9,7534.3z M728.9,7543.9c-1.5,0.1-3-0.3-4.1-1.3c-1-1.1-1.4-2.5-1.3-4
			v-7h-2.8v-3.7h2.9v-4.8h4.2v4.8h4.2v3.7h-4.2v6.8c0,0.5,0.1,0.9,0.3,1.3c0.3,0.3,0.7,0.5,1.1,0.4h2.8v3.7h-3.1V7543.9z
			 M735.1,7527.9h4v2c0.4-0.6,1-1.2,1.7-1.5c0.7-0.4,1.6-0.6,2.4-0.6h2.2v3.8h-2.2c-1,0-2,0.3-2.8,1c-0.7,0.7-1.1,1.6-1.1,2.6v8.6
			h-4.4v-15.9H735.1z M750.1,7526.4c-0.7,0-1.5-0.2-2-0.7c-1-1.1-1-2.7,0-3.8c1.2-1,2.8-1,4,0c1,1.1,1,2.7,0,3.8
			C751.5,7526.2,750.8,7526.4,750.1,7526.4L750.1,7526.4z M747.9,7527.9h4.4v16h-4.4V7527.9z M762.8,7544.1c-1.2,0-2.5-0.2-3.6-0.8
			c-1-0.5-1.8-1.2-2.4-2.1c-0.6-0.9-0.9-2-0.9-3.1v-4.1c0-1.2,0.3-2.3,0.9-3.3c0.6-1,1.4-1.7,2.4-2.2c1.1-0.6,2.3-0.8,3.6-0.8h2.6
			c1.8-0.1,3.6,0.5,4.9,1.7c1.3,1.2,1.9,2.9,1.9,4.6v3.4h-11.8v0.8c0,0.6,0.2,1.3,0.7,1.7c0.5,0.4,1.2,0.7,1.8,0.6h2.5
			c0.6,0,1.3-0.1,1.8-0.5c0.4-0.3,0.7-0.8,0.7-1.3h4.3c0,1-0.3,2-0.9,2.8c-0.6,0.9-1.4,1.5-2.4,1.9c-1.1,0.5-2.3,0.7-3.6,0.7
			L762.8,7544.1z M767.8,7534.2v-0.3c0-0.7-0.2-1.4-0.7-2c-0.5-0.5-1.1-0.8-1.8-0.8h-2.6c-0.7,0-1.4,0.3-1.9,0.8
			c-0.5,0.6-0.7,1.3-0.7,2.1v0.1L767.8,7534.2z M782.8,7544.1c-0.7,0-1.4-0.2-2-0.6c-0.7-0.4-1.2-1-1.7-1.7v2h-4v-22.4h4.4v7.7
			c0.5-0.5,1-0.8,1.6-1.1c0.6-0.3,1.2-0.4,1.8-0.4h2.2c1.1,0,2.3,0.2,3.3,0.8c0.9,0.5,1.7,1.3,2.2,2.2c0.5,1,0.8,2.2,0.8,3.3v3.6
			c0,1.2-0.3,2.3-0.8,3.4c-0.5,1-1.3,1.8-2.2,2.3c-1,0.6-2.1,0.8-3.3,0.8h-2.3V7544.1z M784.5,7540.3c0.7,0,1.4-0.3,1.8-0.8
			c0.5-0.6,0.7-1.4,0.7-2.2v-3c0-0.7-0.2-1.5-0.7-2.1c-0.4-0.5-1.1-0.8-1.8-0.8h-2c-0.8,0-1.6,0.3-2.1,0.9c-0.6,0.6-0.9,1.5-1,2.4
			v2.7c0.1,0.8,0.5,1.5,1,2.1c0.5,0.5,1.2,0.8,1.9,0.8H784.5z M800,7544.1c-1.7,0.1-3.4-0.5-4.7-1.5c-1.2-1-1.8-2.5-1.8-4h4.3
			c0,0.5,0.2,1,0.6,1.4c0.4,0.4,1,0.6,1.6,0.5h2.9c1.3,0,1.9-0.4,1.9-1.1v-0.5c0-0.2-0.1-0.5-0.3-0.6c-0.3-0.2-0.5-0.3-0.9-0.4
			l-5.5-1c-1.1-0.1-2.2-0.6-3.1-1.4c-0.7-0.6-1.1-1.6-1.1-2.5v-1.1c0-1.3,0.6-2.5,1.7-3.2c1.4-0.8,3-1.2,4.7-1.2h2.5
			c1.6-0.1,3.1,0.4,4.3,1.4c1.1,0.9,1.7,2.3,1.6,3.8h-4.3c0-0.4-0.2-0.8-0.5-1.1c-0.3-0.3-0.8-0.4-1.2-0.4h-2.4
			c-1.4,0-2.1,0.3-2.1,1v0.5c0,0.2,0.1,0.4,0.3,0.6s0.5,0.3,0.8,0.3l5.8,1.1c1.1,0.2,2.1,0.6,2.9,1.4c0.7,0.6,1.1,1.4,1.1,2.4v1.2
			c0,1.3-0.6,2.6-1.7,3.3c-1.4,0.9-3,1.3-4.6,1.2L800,7544.1z M811.9,7527.9h4v2c0.4-0.6,1-1.2,1.7-1.5c0.7-0.4,1.6-0.6,2.4-0.6h2.2
			v3.8H820c-1,0-2,0.3-2.8,1c-0.7,0.7-1.1,1.6-1.1,2.6v8.6h-4.4v-15.9H811.9z M828.7,7544.1c-1.4,0.1-2.9-0.4-4-1.2
			c-1-0.8-1.6-2-1.5-3.3v-1.2c0-1.3,0.6-2.5,1.6-3.2c1.2-0.9,2.7-1.3,4.2-1.2h2c0.6,0,1.2,0.1,1.8,0.2s1.2,0.3,1.8,0.6v-1.7
			c0-0.5-0.2-1-0.5-1.3c-0.4-0.3-0.9-0.5-1.4-0.5h-2.8c-0.5,0-1,0.1-1.4,0.4s-0.6,0.7-0.5,1.1h-4.2c0-1.5,0.6-2.8,1.7-3.8
			c1.3-1,2.9-1.5,4.5-1.4h2.8c1.6-0.1,3.3,0.5,4.5,1.5c1.1,1,1.8,2.4,1.7,4v10.8h-4v-1.9c-0.5,0.7-1.2,1.2-1.9,1.6s-1.4,0.6-2.2,0.6
			h-2.2V7544.1z M831,7540.8c0.7,0,1.5-0.2,2.1-0.6s1.1-1,1.3-1.6v-0.5c-0.4-0.3-0.9-0.5-1.4-0.6c-0.6-0.2-1.3-0.2-1.9-0.2h-2
			c-0.4,0-0.9,0.1-1.2,0.4c-0.3,0.2-0.5,0.6-0.5,1v0.8c0,0.4,0.2,0.8,0.5,1c0.4,0.3,0.9,0.4,1.4,0.4L831,7540.8L831,7540.8z
			 M849.3,7543.9c-1.5,0.1-3-0.3-4.1-1.3c-1-1.1-1.4-2.5-1.3-4v-7h-2.8v-3.7h2.9v-4.8h4.2v4.8h4.2v3.7h-4.2v6.8
			c0,0.5,0.1,0.9,0.3,1.3c0.3,0.3,0.7,0.5,1.1,0.4h2.8v3.7h-3.1V7543.9z M860.7,7544.2c-1.4-0.1-2.4-1.3-2.3-2.6
			c0.1-1.4,1.3-2.4,2.6-2.3s2.4,1.3,2.3,2.6c0,0.6-0.3,1.2-0.7,1.6C862.1,7544,861.4,7544.2,860.7,7544.2L860.7,7544.2z
			 M867.7,7544.2c-1.4-0.1-2.4-1.3-2.3-2.6c0.1-1.4,1.3-2.4,2.6-2.3s2.4,1.3,2.3,2.6c0,0.6-0.3,1.2-0.7,1.6
			C869.1,7544,868.4,7544.2,867.7,7544.2L867.7,7544.2z M874.6,7544.2c-1.4-0.1-2.4-1.3-2.3-2.6c0.1-1.4,1.3-2.4,2.6-2.3
			c1.4,0.1,2.4,1.3,2.3,2.6c0,0.6-0.3,1.2-0.7,1.6C876,7544,875.3,7544.2,874.6,7544.2L874.6,7544.2z M910.2,7544.1
			c-1.7,0.1-3.4-0.5-4.6-1.7c-1.2-1.2-1.8-2.9-1.7-4.5v-3.6c0-1.2,0.3-2.4,0.8-3.4s1.4-1.8,2.3-2.3c1.1-0.6,2.3-0.8,3.5-0.8h1.8
			c0.6,0,1.3,0.1,1.9,0.4c0.6,0.2,1.1,0.6,1.6,1.1v-7.7h4.4v22.4h-4v-2.1c-0.4,0.7-1,1.3-1.7,1.7c-0.7,0.4-1.5,0.7-2.3,0.7h-2
			V7544.1z M912.6,7540.4c0.8,0,1.6-0.3,2.2-0.9c0.6-0.7,1-1.6,1-2.5v-2.8c-0.1-0.8-0.5-1.5-1-2s-1.1-0.8-1.8-0.8h-2
			c-0.8,0-1.5,0.3-2.1,0.9c-0.5,0.6-0.8,1.4-0.8,2.3v3c0,0.8,0.2,1.5,0.7,2.1c0.5,0.5,1.1,0.8,1.8,0.8h2V7540.4z M928.9,7544.1
			c-1.4,0.1-2.9-0.4-4-1.2c-1-0.8-1.6-2-1.5-3.3v-1.2c0-1.3,0.6-2.5,1.6-3.2c1.2-0.9,2.7-1.3,4.2-1.2h2c0.6,0,1.2,0.1,1.8,0.2
			s1.2,0.3,1.8,0.6v-1.7c0-0.5-0.2-1-0.5-1.3c-0.4-0.3-0.9-0.5-1.4-0.5H930c-0.5,0-1,0.1-1.4,0.4s-0.6,0.7-0.5,1.1h-4.2
			c0-1.5,0.6-2.8,1.7-3.8c1.3-1,2.9-1.5,4.5-1.4h2.8c1.6-0.1,3.3,0.5,4.5,1.5c1.1,1,1.8,2.4,1.7,4v10.8h-4v-1.9
			c-0.5,0.7-1.2,1.2-1.9,1.6s-1.4,0.6-2.2,0.6h-2.1V7544.1z M931.2,7540.8c0.7,0,1.5-0.2,2.1-0.6s1.1-1,1.3-1.6v-0.5
			c-0.4-0.3-0.9-0.5-1.4-0.6c-0.6-0.2-1.3-0.2-1.9-0.2h-2c-0.4,0-0.9,0.1-1.2,0.4c-0.3,0.2-0.5,0.6-0.5,1v0.8c0,0.4,0.2,0.8,0.5,1
			c0.4,0.3,0.9,0.4,1.4,0.4L931.2,7540.8L931.2,7540.8z M948.2,7544.1c-1.7,0.1-3.4-0.5-4.7-1.5c-1.2-1-1.8-2.5-1.8-4h4.3
			c0,0.5,0.2,1,0.6,1.4c0.4,0.4,1,0.6,1.6,0.5h2.9c1.3,0,1.9-0.4,1.9-1.1v-0.5c0-0.2-0.1-0.5-0.3-0.6c-0.3-0.2-0.5-0.3-0.9-0.4
			l-5.5-1c-1.1-0.1-2.2-0.6-3.1-1.4c-0.7-0.6-1.1-1.6-1.1-2.5v-1.1c0-1.3,0.6-2.5,1.7-3.2c1.4-0.8,3-1.2,4.7-1.2h2.5
			c1.6-0.1,3.1,0.4,4.3,1.4c1.1,0.9,1.7,2.3,1.6,3.8h-4.3c0-0.4-0.2-0.8-0.5-1.1c-0.3-0.3-0.8-0.4-1.2-0.4h-2.4
			c-1.4,0-2.1,0.3-2.1,1v0.5c0,0.2,0.1,0.4,0.3,0.6s0.5,0.3,0.8,0.3l5.8,1.1c1.1,0.2,2.1,0.6,2.9,1.4c0.7,0.6,1.1,1.4,1.1,2.4v1.2
			c0,1.3-0.6,2.6-1.7,3.3c-1.4,0.9-3,1.3-4.6,1.2L948.2,7544.1z M689.4,7592.4c-1.5,0.1-3.1-0.5-4.3-1.5c-1.1-1-1.8-2.3-1.9-3.8h4.3
			c0,0.4,0.2,0.9,0.6,1.1c0.4,0.3,0.8,0.4,1.3,0.4h2.9c0.6,0,1.2-0.3,1.6-0.8c0.4-0.6,0.7-1.4,0.6-2.1v-1.5c-0.4,0.5-1,0.9-1.6,1.1
			c-0.5,0.3-1.1,0.4-1.7,0.4H689c-1.7,0.1-3.4-0.5-4.7-1.7c-1.2-1.2-1.8-2.8-1.8-4.5v-3.3c0-1.2,0.3-2.4,0.8-3.4s1.4-1.8,2.3-2.3
			c1.1-0.6,2.3-0.8,3.5-0.8h1.9c0.7,0,1.5,0.2,2.1,0.5c0.7,0.3,1.2,0.8,1.7,1.3v-1.6h4v15.8c0,1.2-0.3,2.4-0.8,3.5
			c-0.5,1-1.3,1.8-2.3,2.3c-1.1,0.6-2.3,0.9-3.5,0.8L689.4,7592.4z M691.5,7582.1c0.8,0,1.6-0.4,2-1c0.6-0.8,0.9-1.7,1-2.6v-2.2
			c0-0.8-0.4-1.5-0.9-2s-1.2-0.8-1.9-0.8h-2.2c-0.7,0-1.4,0.3-1.9,0.9s-0.8,1.5-0.7,2.3v2.6c0,0.8,0.2,1.5,0.7,2.1
			c0.4,0.5,1.1,0.8,1.7,0.8L691.5,7582.1L691.5,7582.1z M708.8,7586.1c-1.2,0-2.5-0.2-3.6-0.8c-1-0.5-1.8-1.2-2.4-2.1
			c-0.6-0.9-0.9-2-0.9-3.1v-4.1c0-1.2,0.3-2.3,0.9-3.3c0.6-1,1.4-1.7,2.4-2.2c1.1-0.6,2.3-0.8,3.6-0.8h2.6c1.8-0.1,3.6,0.5,4.9,1.7
			c1.3,1.2,1.9,2.9,1.9,4.6v3.4h-11.8v0.8c0,0.6,0.2,1.3,0.7,1.7c0.5,0.4,1.2,0.7,1.8,0.6h2.5c0.6,0,1.3-0.1,1.8-0.5
			c0.4-0.3,0.7-0.8,0.7-1.3h4.3c0,1-0.3,2-0.9,2.8c-0.6,0.9-1.4,1.5-2.4,1.9c-1.1,0.5-2.3,0.7-3.6,0.7L708.8,7586.1z M713.9,7576.3
			v-0.3c0-0.7-0.2-1.4-0.7-2c-0.5-0.5-1.1-0.8-1.8-0.8h-2.6c-0.7,0-1.4,0.3-1.9,0.8c-0.5,0.6-0.7,1.3-0.7,2.1v0.1L713.9,7576.3z
			 M721.1,7563.5h4.4v8c0.5-0.6,1.1-1,1.7-1.3c0.6-0.3,1.3-0.5,2-0.5h2c1.5-0.1,3,0.5,4.1,1.6s1.6,2.7,1.6,4.2v10.4h-4.4v-10.2
			c0-0.6-0.2-1.1-0.5-1.6c-0.3-0.4-0.8-0.6-1.4-0.6h-2c-0.7,0-1.5,0.3-2,0.8c-0.6,0.6-1,1.3-1.2,2.1v9.5H721v-22.4H721.1z
			 M747.3,7585.9c-1.5,0.1-3-0.3-4.1-1.3c-1-1.1-1.4-2.5-1.3-4v-7h-2.8v-3.7h2.9v-4.8h4.2v4.8h4.2v3.7h-4.2v6.8
			c0,0.5,0.1,0.9,0.3,1.3c0.3,0.3,0.7,0.5,1.1,0.4h2.7v3.7h-3V7585.9z M768.4,7586.1c-1.7,0.1-3.4-0.5-4.6-1.7
			c-1.2-1.2-1.8-2.9-1.7-4.5v-3.6c0-1.2,0.3-2.4,0.8-3.4s1.4-1.8,2.3-2.3c1.1-0.6,2.3-0.8,3.5-0.8h1.8c0.6,0,1.3,0.1,1.9,0.4
			c0.6,0.2,1.1,0.6,1.6,1.1v-7.7h4.4v22.4h-4v-2.1c-0.4,0.7-1,1.3-1.7,1.7c-0.7,0.4-1.5,0.7-2.3,0.7h-2V7586.1z M770.8,7582.4
			c0.8,0,1.6-0.3,2.2-0.9c0.6-0.7,1-1.6,1-2.5v-2.8c-0.1-0.8-0.5-1.5-1-2s-1.1-0.8-1.8-0.8h-2c-0.8,0-1.5,0.3-2.1,0.9
			c-0.5,0.6-0.8,1.4-0.8,2.3v3c0,0.8,0.2,1.5,0.7,2.1c0.5,0.5,1.1,0.8,1.8,0.8h2V7582.4z M788.2,7586.1c-1.2,0-2.5-0.2-3.6-0.8
			c-1-0.5-1.8-1.3-2.4-2.2c-0.6-1-0.9-2.2-0.8-3.3v-3.7c0-1.2,0.3-2.3,0.9-3.3c0.6-1,1.4-1.8,2.4-2.3c1.1-0.6,2.3-0.8,3.6-0.8h2.9
			c1.2,0,2.5,0.2,3.6,0.8c1,0.5,1.8,1.3,2.4,2.3c0.6,1,0.9,2.2,0.9,3.3v3.7c0,1.2-0.3,2.3-0.9,3.3c-0.6,1-1.4,1.7-2.4,2.2
			c-1.1,0.5-2.4,0.8-3.6,0.8H788.2z M791,7582.4c0.7,0,1.4-0.3,1.9-0.8c0.5-0.6,0.7-1.4,0.7-2.1v-3.1c0-0.8-0.2-1.5-0.7-2.1
			c-0.5-0.5-1.1-0.8-1.9-0.8h-2.8c-0.7,0-1.4,0.3-1.9,0.8c-0.5,0.6-0.7,1.4-0.7,2.1v3.1c0,0.8,0.2,1.5,0.7,2.1
			c0.5,0.5,1.1,0.8,1.8,0.8H791z M807.2,7586.1c-1.2,0-2.5-0.2-3.6-0.8c-1-0.5-1.8-1.3-2.4-2.2c-0.6-1-0.9-2.2-0.8-3.3v-3.7
			c0-1.2,0.3-2.3,0.8-3.3c0.6-1,1.4-1.7,2.4-2.2c1.1-0.6,2.3-0.8,3.6-0.8h2.5c1.2,0,2.3,0.2,3.4,0.8c1,0.5,1.7,1.2,2.3,2.2
			c0.5,1,0.8,2.1,0.8,3.2h-4.3c0-0.6-0.2-1.3-0.6-1.7c-0.4-0.4-1-0.7-1.6-0.7h-2.5c-0.7,0-1.4,0.3-1.8,0.8c-0.5,0.6-0.7,1.4-0.7,2.1
			v3.1c0,0.8,0.2,1.5,0.7,2.1c0.5,0.5,1.1,0.8,1.8,0.8h2.5c0.6,0,1.2-0.2,1.6-0.7c0.4-0.6,0.7-1.2,0.6-2h4.3
			c0.1,1.7-0.6,3.4-1.8,4.7c-1.3,1.2-3,1.8-4.8,1.8L807.2,7586.1z M818.9,7563.5h4.4v8c0.5-0.6,1.1-1,1.7-1.3c0.6-0.3,1.3-0.5,2-0.5
			h2c1.5-0.1,3,0.5,4.1,1.6s1.6,2.7,1.6,4.2v10.4h-4.4v-10.2c0-0.6-0.2-1.1-0.5-1.6c-0.3-0.4-0.8-0.6-1.4-0.6h-2
			c-0.7,0-1.5,0.3-2,0.8c-0.6,0.6-1,1.3-1.2,2.1v9.5h-4.4v-22.4H818.9z M847.4,7569.9h4v1.9c0.5-0.7,1.1-1.2,1.8-1.6
			s1.5-0.6,2.2-0.6h1.9c1.5-0.1,3,0.5,4.1,1.6s1.6,2.7,1.6,4.2v10.4h-4.4v-10.2c0-0.6-0.2-1.1-0.5-1.6c-0.3-0.4-0.8-0.6-1.4-0.6
			h-1.9c-0.7,0-1.5,0.3-2,0.8c-0.6,0.6-1,1.3-1.2,2.1v9.5h-4.4v-15.9H847.4z M869.4,7568.4c-0.7,0-1.5-0.2-2-0.7c-1-1.1-1-2.7,0-3.8
			c1.2-1,2.8-1,4,0c1,1.1,1,2.7,0,3.8C870.8,7568.2,870.1,7568.4,869.4,7568.4L869.4,7568.4z M867.2,7569.9h4.4v16h-4.4V7569.9z
			 M882,7586.1c-1.2,0-2.5-0.2-3.6-0.8c-1-0.5-1.8-1.3-2.4-2.2c-0.6-1-0.9-2.2-0.8-3.3v-3.7c0-1.2,0.3-2.3,0.8-3.3
			c0.6-1,1.4-1.7,2.4-2.2c1.1-0.6,2.3-0.8,3.6-0.8h2.5c1.2,0,2.3,0.2,3.4,0.8c1,0.5,1.7,1.2,2.3,2.2c0.5,1,0.8,2.1,0.8,3.2h-4.3
			c0-0.6-0.2-1.3-0.6-1.7c-0.4-0.4-1-0.7-1.6-0.7H882c-0.7,0-1.4,0.3-1.8,0.8c-0.5,0.6-0.7,1.4-0.7,2.1v3.1c0,0.8,0.2,1.5,0.7,2.1
			c0.5,0.5,1.1,0.8,1.8,0.8h2.5c0.6,0,1.2-0.2,1.6-0.7c0.4-0.6,0.7-1.2,0.6-2h4.3c0.1,1.7-0.6,3.4-1.8,4.7c-1.3,1.2-3,1.8-4.8,1.8
			L882,7586.1z M893.8,7563.5h4.4v8c0.5-0.6,1.1-1,1.7-1.3c0.6-0.3,1.3-0.5,2-0.5h2c1.5-0.1,3,0.5,4.1,1.6s1.6,2.7,1.6,4.2v10.4
			h-4.4v-10.2c0-0.6-0.2-1.1-0.5-1.6c-0.3-0.4-0.8-0.6-1.4-0.6h-2c-0.7,0-1.5,0.3-2,0.8c-0.6,0.6-1,1.3-1.2,2.1v9.5h-4.4
			L893.8,7563.5z M920,7585.9c-1.5,0.1-3-0.3-4.1-1.3c-1-1.1-1.4-2.5-1.3-4v-7h-2.8v-3.7h2.9v-4.8h4.2v4.8h4.2v3.7h-4.2v6.8
			c0,0.5,0.1,0.9,0.3,1.3c0.3,0.3,0.7,0.5,1.1,0.4h2.8v3.7H920V7585.9z M928.1,7586.2c-1.4-0.1-2.4-1.3-2.3-2.6
			c0.1-1.4,1.3-2.4,2.6-2.3c1.4,0.1,2.4,1.3,2.3,2.6c0,0.6-0.3,1.2-0.7,1.6C929.5,7586,928.8,7586.2,928.1,7586.2L928.1,7586.2z
			 M939.8,7566.4l-1,0.9c-1.1,0.9-1.7,2.2-1.7,3.6v2.1h-4.4v-2.1c0-1.3,0.2-2.7,0.8-3.9c0.5-1.1,1.3-2.1,2.3-2.9l1.1-0.9
			L939.8,7566.4z M946.8,7566.4l-1,0.9c-1.1,0.9-1.7,2.2-1.7,3.6v2.1h-4.4v-2.1c0-1.3,0.2-2.7,0.8-3.9c0.5-1.1,1.3-2.1,2.3-2.9
			l1.1-0.9L946.8,7566.4z M893.7,7535.9h-9.2v-3.2h9.2V7535.9z"/>
	</g>
	<path id="Pfad_8" class="st2" d="M985.5,7657.8l1.9-1.7c2.1-1.8,3.4-4.5,3.3-7.3v-4.2h8.7v4.2c0,2.7-0.5,5.3-1.6,7.7
		c-1,2.3-2.6,4.3-4.6,5.8l-2.2,1.7L985.5,7657.8z M1000.1,7657.8l1.9-1.7c2.1-1.8,3.4-4.5,3.3-7.3v-4.2h8.7v4.2
		c0,2.7-0.5,5.3-1.6,7.7c-1,2.3-2.6,4.3-4.6,5.8l-2.2,1.7L1000.1,7657.8z M1026.8,7651.6c-1.7,0.1-3.3-0.5-4.5-1.7
		c-1.2-1.1-1.8-2.7-1.7-4.4v-38.8h21.4c3.1-0.1,6.2,0.6,9,1.9c2.5,1.2,4.6,3.1,6,5.4c1.5,2.5,2.2,5.3,2.1,8.1v12.5
		c0,5.5-1.4,9.7-4.3,12.5s-7.1,4.3-12.6,4.3h-15.4V7651.6z M1041.9,7643.8c2.3,0.2,4.6-0.7,6.2-2.4c1.4-1.6,2.1-3.9,2.1-7v-11.8
		c0.1-2.2-0.8-4.3-2.4-5.9c-1.7-1.5-3.9-2.3-6.2-2.2h-12.3v29.2L1041.9,7643.8L1041.9,7643.8z M1077.6,7652.1
		c-2.5,0-4.9-0.5-7.1-1.6c-2-1-3.7-2.5-4.8-4.4c-1.2-2-1.7-4.3-1.7-6.7v-7.5c0-2.3,0.6-4.7,1.7-6.7c1.1-1.9,2.8-3.5,4.8-4.5
		c2.2-1.1,4.7-1.6,7.1-1.6h5.8c2.5,0,4.9,0.5,7.1,1.6c2,1,3.7,2.6,4.8,4.5c1.2,2,1.8,4.3,1.7,6.7v7.5c0,2.3-0.6,4.6-1.7,6.7
		c-1.1,1.9-2.8,3.5-4.8,4.4c-2.2,1.1-4.7,1.6-7.2,1.6H1077.6z M1083.2,7644.6c1.4,0.1,2.8-0.5,3.8-1.6c1-1.2,1.5-2.7,1.4-4.3v-6.2
		c0.1-1.5-0.4-3.1-1.4-4.3c-0.9-1.1-2.3-1.7-3.7-1.6h-5.5c-1.4-0.1-2.8,0.6-3.7,1.6c-1,1.2-1.5,2.7-1.4,4.3v6.2
		c-0.1,1.5,0.4,3.1,1.4,4.3c0.9,1.1,2.2,1.7,3.6,1.6H1083.2z M1115.6,7652.1c-2.5,0-4.9-0.5-7.1-1.6c-2-1-3.7-2.6-4.8-4.5
		c-1.2-2-1.7-4.3-1.7-6.7v-7.5c0-2.3,0.5-4.6,1.7-6.7c1.1-1.9,2.8-3.5,4.8-4.5c2.2-1.1,4.6-1.7,7.1-1.6h5.1c2.4,0,4.7,0.5,6.8,1.5
		c1.9,1,3.5,2.5,4.5,4.3c1.1,2,1.6,4.2,1.6,6.4h-8.6c0.1-1.3-0.4-2.5-1.2-3.5c-0.8-0.9-1.9-1.4-3.1-1.3h-4.9c-1.4,0-2.7,0.6-3.6,1.6
		c-1,1.2-1.4,2.7-1.4,4.3v6.2c-0.1,1.5,0.4,3.1,1.4,4.3c0.9,1.1,2.2,1.7,3.6,1.6h4.9c1.3,0,2.5-0.5,3.3-1.5c0.9-1.1,1.3-2.5,1.2-3.9
		h8.6c0.2,3.5-1.2,6.9-3.6,9.3c-2.6,2.4-6,3.7-9.6,3.5L1115.6,7652.1z M1139.1,7606.8h8.7v16.1c1-1.1,2.2-2,3.5-2.7
		c1.2-0.6,2.6-1,4-1h4c3.1-0.1,6.1,1,8.2,3.2c2.1,2.3,3.2,5.3,3.1,8.4v20.8h-8.7v-20.5c0.1-1.2-0.3-2.3-1.1-3.2
		c-0.7-0.8-1.7-1.2-2.7-1.2h-4c-1.5,0-2.9,0.6-4,1.6c-1.2,1.1-2,2.6-2.3,4.3v19h-8.7V7606.8z M1207.4,7652.1
		c-3.4,0.1-6.7-1.1-9.2-3.5c-2.4-2.4-3.6-5.7-3.5-9.1v-7.3c-0.1-2.4,0.5-4.8,1.7-6.9c1.1-2,2.7-3.6,4.7-4.6c2.2-1.1,4.6-1.7,7-1.6
		h3.5c1.3,0,2.6,0.3,3.8,0.8c1.2,0.5,2.3,1.2,3.2,2.1v-15.3h8.7v44.8h-8.1v-4.2c-0.9,1.4-2,2.6-3.5,3.4c-1.4,0.8-2.9,1.3-4.5,1.3
		h-3.8V7652.1z M1212.2,7644.6c1.7,0,3.3-0.7,4.4-1.9c1.2-1.4,1.9-3.2,2-5v-5.6c-0.2-1.5-0.9-2.9-2-4c-0.9-1-2.2-1.5-3.6-1.5h-3.9
		c-1.6-0.1-3.1,0.6-4.1,1.7c-1.1,1.3-1.6,2.9-1.6,4.5v6c-0.1,1.5,0.4,3,1.4,4.1c0.9,1,2.3,1.6,3.6,1.6L1212.2,7644.6z
		 M1244.8,7652.1c-2.9,0.1-5.8-0.7-8.1-2.5c-2-1.6-3.2-4-3.1-6.6v-2.4c-0.1-2.6,1.1-5,3.2-6.5c2.5-1.7,5.4-2.6,8.4-2.5h3.9
		c1.2,0,2.4,0.2,3.6,0.4c1.2,0.3,2.4,0.7,3.5,1.2v-3.3c0-1-0.3-1.9-1.1-2.6c-0.8-0.7-1.8-1-2.8-1h-5.5c-1-0.1-2,0.2-2.9,0.8
		c-0.7,0.5-1.1,1.4-1.1,2.2h-8.4c-0.1-2.9,1.2-5.7,3.4-7.5c2.6-2,5.8-3,9-2.8h5.5c3.3-0.2,6.5,0.9,9.1,3c2.3,2,3.6,4.9,3.5,7.9v21.6
		h-8.1v-3.8c-1,1.3-2.3,2.4-3.8,3.2c-1.4,0.8-2.9,1.2-4.4,1.2L1244.8,7652.1L1244.8,7652.1z M1249.4,7645.4c1.5,0,3-0.4,4.2-1.2
		c1.2-0.8,2.2-1.9,2.7-3.3v-1.1c-0.9-0.6-1.8-1-2.8-1.2c-1.3-0.3-2.6-0.5-3.9-0.4h-4c-0.9,0-1.8,0.2-2.5,0.8c-0.6,0.5-1,1.3-1,2v1.7
		c0,0.8,0.4,1.5,1.1,2c0.8,0.5,1.8,0.8,2.8,0.8L1249.4,7645.4z M1283.4,7652.1c-3.9,0-7-1-9.3-3.1c-2.3-2-3.6-5-3.5-8.1h8.6
		c0,1.1,0.4,2.1,1.2,2.8c0.9,0.7,2,1.1,3.1,1.1h5.8c2.6,0,3.8-0.7,3.8-2.1v-1.1c0-0.5-0.3-0.9-0.6-1.2c-0.5-0.4-1.1-0.6-1.7-0.7
		l-11.1-1.9c-2.3-0.3-4.4-1.3-6.2-2.8c-1.4-1.3-2.3-3.1-2.3-5v-2.1c-0.1-2.6,1.2-5,3.4-6.4c2.2-1.5,5.4-2.3,9.4-2.3h5
		c3.1-0.1,6.2,0.9,8.7,2.8c2.2,1.9,3.4,4.6,3.3,7.5h-8.6c0-0.8-0.3-1.7-0.9-2.2c-0.7-0.6-1.6-0.9-2.5-0.8h-4.9
		c-2.8,0-4.2,0.6-4.2,1.9v1c0,0.5,0.2,0.9,0.5,1.2c0.5,0.4,1,0.6,1.6,0.7l11.6,2.1c2.2,0.3,4.2,1.3,5.9,2.7c1.4,1.2,2.2,2.9,2.2,4.7
		v2.3c0.1,2.6-1.2,5.1-3.4,6.6c-2.3,1.6-5.3,2.4-9.1,2.4H1283.4z M1068.2,7728.6c-3.1,0.1-6.1-0.9-8.5-2.9c-2.3-1.9-3.6-4.7-3.8-7.6
		h8.6c0.1,0.9,0.5,1.7,1.2,2.3c0.7,0.6,1.6,0.9,2.6,0.9h5.8c1.3,0,2.5-0.6,3.2-1.6c0.9-1.2,1.3-2.7,1.2-4.3v-3
		c-0.9,1-1.9,1.7-3.1,2.2c-1.1,0.5-2.3,0.8-3.5,0.8h-4.4c-3.5,0.2-6.8-1.1-9.4-3.5c-2.4-2.4-3.7-5.7-3.6-9.1v-6.5
		c-0.1-2.4,0.5-4.8,1.7-6.9c1.1-2,2.7-3.6,4.7-4.6c2.1-1.1,4.5-1.7,6.9-1.6h3.7c1.5,0,2.9,0.4,4.3,1c1.3,0.6,2.5,1.5,3.4,2.7v-3.2
		h8.1v31.6c0.1,2.4-0.5,4.8-1.6,7c-1.1,2-2.7,3.6-4.6,4.7c-2.1,1.1-4.5,1.7-6.9,1.7h-6V7728.6z M1072.4,7707.9c1.6,0,3.1-0.7,4.1-2
		c1.2-1.5,1.8-3.4,1.9-5.3v-4.4c-0.1-1.5-0.7-3-1.7-4.1c-1-1-2.3-1.6-3.7-1.5h-4.5c-1.5,0-2.9,0.6-3.8,1.7c-1,1.3-1.5,2.9-1.5,4.5
		v5.2c-0.1,1.5,0.4,3,1.3,4.2c0.8,1,2.1,1.6,3.5,1.6L1072.4,7707.9z M1107,7716.1c-2.5,0-4.9-0.5-7.1-1.5c-2-0.9-3.7-2.4-4.8-4.2
		c-1.2-1.9-1.8-4-1.7-6.2v-8.3c0-2.3,0.6-4.6,1.7-6.7c1.2-1.9,2.8-3.5,4.8-4.5c2.2-1.1,4.7-1.6,7.1-1.6h5.1c4.1,0,7.4,1.2,9.9,3.5
		c2.5,2.4,3.9,5.8,3.7,9.2v6.8H1102v1.5c-0.1,1.3,0.4,2.5,1.3,3.4c1,0.9,2.3,1.4,3.6,1.3h5c1.3,0.1,2.5-0.3,3.6-1
		c0.9-0.6,1.4-1.5,1.4-2.6h8.6c0,2-0.6,4-1.7,5.7c-1.2,1.7-2.9,3-4.8,3.8c-2.3,0.9-4.7,1.4-7.1,1.3L1107,7716.1z M1117.1,7696.3
		v-0.5c0.1-1.5-0.4-2.9-1.3-4c-0.9-1-2.2-1.6-3.6-1.5h-5.2c-1.4-0.1-2.8,0.5-3.7,1.6c-1,1.2-1.5,2.7-1.4,4.2v0.2L1117.1,7696.3z
		 M1131.6,7670.8h8.7v16.1c1-1.1,2.2-2,3.5-2.7c1.2-0.6,2.6-1,4-1h4c3.1-0.1,6.1,1,8.2,3.2c2.1,2.3,3.2,5.3,3.1,8.4v20.8h-8.7v-20.5
		c0.1-1.2-0.3-2.3-1.1-3.2c-0.7-0.8-1.7-1.2-2.7-1.2h-4c-1.5,0-2.9,0.6-4,1.6c-1.2,1.1-2,2.6-2.3,4.3v19h-8.7V7670.8z M1184,7715.6
		c-3.8,0-6.5-0.9-8.3-2.6c-1.7-1.7-2.6-4.4-2.6-7.9v-14h-5.6v-7.4h5.9v-9.7h8.4v9.7h8.3v7.4h-8.3v13.6c-0.1,0.9,0.2,1.8,0.7,2.6
		c0.5,0.6,1.3,0.9,2.1,0.8h5.5v7.4h-6.1V7715.6z M1197.5,7670.8h8.8v31.7h-8.8V7670.8z M1202,7716.2c-2.7-0.2-4.8-2.5-4.6-5.2
		c0.2-2.7,2.5-4.8,5.2-4.6c2.7,0.2,4.8,2.5,4.6,5.2c-0.1,1.2-0.6,2.3-1.4,3.2C1204.8,7715.7,1203.4,7716.3,1202,7716.2L1202,7716.2z
		 M1213.7,7670.8h8.7v15.6h-8.7V7670.8z M1226.2,7670.8h8.7v15.6h-8.7V7670.8z"/>
</g>
</svg>
