<svg xmlns="http://www.w3.org/2000/svg" width="825.123" height="554.084" viewBox="0 0 825.123 554.084">
  <g id="Gruppe_3" data-name="Gruppe 3" transform="translate(-528.685 -4435.777)">
    <path id="icons8-speech_bubble" d="M238.657,4C108.15,4,2,96.324,2,209.789c0,63.666,34.325,124.157,92.083,162.983-1.367,10.812-6.833,37.058-28.457,67.766L54.251,456.655l20.338.08c55.869,0,93.65-34.245,106.07-47.388a270.7,270.7,0,0,0,58,6.23c130.507,0,236.657-92.324,236.657-205.789S369.165,4,238.657,4Z" transform="translate(526.685 4431.777)" fill="#fff"/>
    <path id="icons8-speech_bubble-2" data-name="icons8-speech_bubble" d="M214.563,4c117.22,0,212.563,80.009,212.563,178.34,0,55.174-30.83,107.6-82.707,141.244,1.227,9.37,6.137,32.115,25.56,58.727l10.217,13.968-18.267.07c-50.18,0-84.115-29.677-95.27-41.067a251.652,251.652,0,0,1-52.094,5.4C97.343,360.68,2,280.671,2,182.34S97.343,4,214.563,4Z" transform="translate(926.683 4593.514)" fill="#b7d12a"/>
    <path id="Pfad_7" data-name="Pfad 7" d="M9.692,52.7l1.44-1.3a7.108,7.108,0,0,0,2.5-5.472V42.768h6.528v3.168a13.9,13.9,0,0,1-1.176,5.808,11.57,11.57,0,0,1-3.432,4.368l-1.632,1.3Zm10.944,0,1.44-1.3a7.108,7.108,0,0,0,2.5-5.472V42.768H31.1v3.168a13.9,13.9,0,0,1-1.176,5.808,11.57,11.57,0,0,1-3.432,4.368l-1.632,1.3ZM43.244,48a4.476,4.476,0,0,1-2.736-.816,4.647,4.647,0,0,1-1.536-2.928L33.02,14.4h6.72l4.128,23.856h.1l6.96-22.08h2.4a3.539,3.539,0,0,1,2.088.624,4.045,4.045,0,0,1,1.368,2.256l5.856,19.152h.1L66.86,14.4h6.72l-6,29.856a4.951,4.951,0,0,1-1.416,2.832A4.09,4.09,0,0,1,63.356,48H60.572L53.42,24.96h-.1L46.028,48Zm41.424.384a11.712,11.712,0,0,1-5.352-1.176,8.546,8.546,0,0,1-3.6-3.336,9.653,9.653,0,0,1-1.272-4.992V33.264a9.641,9.641,0,0,1,1.3-5.016,8.813,8.813,0,0,1,3.624-3.384,11.517,11.517,0,0,1,5.352-1.2h4.32a11.517,11.517,0,0,1,5.352,1.2,8.813,8.813,0,0,1,3.624,3.384,9.641,9.641,0,0,1,1.3,5.016V38.88a9.513,9.513,0,0,1-1.3,4.992,8.7,8.7,0,0,1-3.624,3.336,11.823,11.823,0,0,1-5.4,1.176Zm4.224-5.616a3.551,3.551,0,0,0,2.832-1.224,4.713,4.713,0,0,0,1.056-3.192V33.7A4.713,4.713,0,0,0,91.724,30.5,3.5,3.5,0,0,0,88.94,29.28H84.812A3.5,3.5,0,0,0,82.028,30.5,4.713,4.713,0,0,0,80.972,33.7v4.656a4.713,4.713,0,0,0,1.056,3.192,3.445,3.445,0,0,0,2.736,1.224ZM103.916,14.4h6.528V26.448a8.013,8.013,0,0,1,2.616-2.016,6.786,6.786,0,0,1,3-.768h2.976a8.2,8.2,0,0,1,6.168,2.4,8.714,8.714,0,0,1,2.328,6.336V48H121V32.64a3.53,3.53,0,0,0-.792-2.4,2.578,2.578,0,0,0-2.04-.912H115.2a4.293,4.293,0,0,0-3,1.224,5.97,5.97,0,0,0-1.752,3.192V48h-6.528Zm38.208,33.984a12.129,12.129,0,0,1-5.352-1.128,8.65,8.65,0,0,1-3.624-3.168,8.539,8.539,0,0,1-1.3-4.68V33.216a9.514,9.514,0,0,1,1.3-4.992,8.862,8.862,0,0,1,3.624-3.36,11.517,11.517,0,0,1,5.352-1.2h3.84a10.413,10.413,0,0,1,7.392,2.592,8.993,8.993,0,0,1,2.784,6.912v5.088H138.38v1.152a3.35,3.35,0,0,0,1.008,2.544,3.8,3.8,0,0,0,2.736.96h3.744a4.535,4.535,0,0,0,2.712-.744,2.292,2.292,0,0,0,1.032-1.944h6.432a7.324,7.324,0,0,1-1.3,4.272,8.284,8.284,0,0,1-3.624,2.88,13.361,13.361,0,0,1-5.352,1.008Zm7.584-14.832v-.384a4.334,4.334,0,0,0-1.008-3,3.428,3.428,0,0,0-2.688-1.128h-3.888a3.529,3.529,0,0,0-2.784,1.2,4.621,4.621,0,0,0-1.056,3.168v.144Zm10.848-9.5H166.6V27.12a6.791,6.791,0,0,1,2.616-2.28,7.636,7.636,0,0,1,3.576-.888h3.264v5.664H172.8a5.68,5.68,0,0,0-4.128,1.536,5.244,5.244,0,0,0-1.584,3.936V48h-6.528ZM199.628,48q-3.216,0-4.128-3.744l-4.848-20.208h6.768l2.928,15.216h.1l5.232-14.64h2.544A2.992,2.992,0,0,1,210,25.1a3.132,3.132,0,0,1,1.056,1.488l4.464,12.672h.1l2.88-15.216h6.768l-4.752,20.208Q219.644,48,216.38,48H213.4l-5.328-15.168L202.556,48Zm37.824.384a12.129,12.129,0,0,1-5.352-1.128,8.65,8.65,0,0,1-3.624-3.168,8.539,8.539,0,0,1-1.3-4.68V33.216a9.514,9.514,0,0,1,1.3-4.992,8.862,8.862,0,0,1,3.624-3.36,11.517,11.517,0,0,1,5.352-1.2h3.84a10.413,10.413,0,0,1,7.392,2.592,8.993,8.993,0,0,1,2.784,6.912v5.088h-17.76v1.152a3.35,3.35,0,0,0,1.008,2.544,3.8,3.8,0,0,0,2.736.96H241.2a4.535,4.535,0,0,0,2.712-.744,2.292,2.292,0,0,0,1.032-1.944h6.432a7.324,7.324,0,0,1-1.3,4.272,8.284,8.284,0,0,1-3.624,2.88,13.361,13.361,0,0,1-5.352,1.008Zm7.584-14.832v-.384a4.334,4.334,0,0,0-1.008-3,3.428,3.428,0,0,0-2.688-1.128h-3.888a3.529,3.529,0,0,0-2.784,1.2,4.621,4.621,0,0,0-1.056,3.168v.144Zm14.976-11.76a4.157,4.157,0,0,1-3-1.08,3.772,3.772,0,0,1-1.128-2.856A3.772,3.772,0,0,1,257.012,15a4.707,4.707,0,0,1,6,0,3.772,3.772,0,0,1,1.128,2.856,3.772,3.772,0,0,1-1.128,2.856A4.157,4.157,0,0,1,260.012,21.792Zm-3.264,2.256h6.528V48h-6.528ZM278.2,48.384a10.277,10.277,0,0,1-7.008-2.3,7.64,7.64,0,0,1-2.64-6.048h6.432a2.663,2.663,0,0,0,.888,2.088,3.366,3.366,0,0,0,2.328.792h4.32q2.88,0,2.88-1.584v-.816a1.166,1.166,0,0,0-.48-.888,2.682,2.682,0,0,0-1.3-.552l-8.3-1.44a8.587,8.587,0,0,1-4.632-2.088,5.024,5.024,0,0,1-1.7-3.768V30.192a5.5,5.5,0,0,1,2.52-4.8,12.315,12.315,0,0,1,7.032-1.728h3.744a9.6,9.6,0,0,1,6.5,2.136,7.089,7.089,0,0,1,2.472,5.64h-6.432a2.144,2.144,0,0,0-.7-1.68,2.664,2.664,0,0,0-1.848-.624h-3.648q-3.12,0-3.12,1.44v.768a1.138,1.138,0,0,0,.408.888,2.426,2.426,0,0,0,1.176.5l8.736,1.584a8.469,8.469,0,0,1,4.416,2.04,4.715,4.715,0,0,1,1.68,3.528v1.728a5.755,5.755,0,0,1-2.568,4.944,11.582,11.582,0,0,1-6.84,1.824Zm26.352,0a10.277,10.277,0,0,1-7.008-2.3,7.64,7.64,0,0,1-2.64-6.048h6.432a2.663,2.663,0,0,0,.888,2.088,3.366,3.366,0,0,0,2.328.792h4.32q2.88,0,2.88-1.584v-.816a1.166,1.166,0,0,0-.48-.888,2.682,2.682,0,0,0-1.3-.552l-8.3-1.44a8.587,8.587,0,0,1-4.632-2.088,5.024,5.024,0,0,1-1.7-3.768V30.192a5.5,5.5,0,0,1,2.52-4.8,12.315,12.315,0,0,1,7.032-1.728h3.744a9.6,9.6,0,0,1,6.5,2.136,7.089,7.089,0,0,1,2.472,5.64H311.18a2.144,2.144,0,0,0-.7-1.68,2.664,2.664,0,0,0-1.848-.624h-3.648q-3.12,0-3.12,1.44v.768a1.138,1.138,0,0,0,.408.888,2.426,2.426,0,0,0,1.176.5l8.736,1.584a8.469,8.469,0,0,1,4.416,2.04,4.715,4.715,0,0,1,1.68,3.528v1.728a5.755,5.755,0,0,1-2.568,4.944,11.582,11.582,0,0,1-6.84,1.824ZM332.588,48q-4.224,0-6.192-1.92t-1.968-5.952V29.616H320.2V24.048h4.416V16.8h6.336v7.248h6.24v5.568h-6.24V39.84a3.12,3.12,0,0,0,.5,1.968,1.946,1.946,0,0,0,1.608.624H337.2V48ZM20.372,112.384a9.36,9.36,0,0,1-6.888-2.592,9.169,9.169,0,0,1-2.616-6.816V97.5a10.4,10.4,0,0,1,1.248-5.16,8.674,8.674,0,0,1,3.5-3.456,10.8,10.8,0,0,1,5.232-1.224h2.64a7.327,7.327,0,0,1,2.832.6,6.954,6.954,0,0,1,2.4,1.608V78.4h6.528V112H29.2v-3.168a7.515,7.515,0,0,1-2.592,2.568,6.506,6.506,0,0,1-3.408.984Zm3.552-5.616a4.311,4.311,0,0,0,3.288-1.416,6.064,6.064,0,0,0,1.512-3.768V97.408a5.485,5.485,0,0,0-1.464-3A3.643,3.643,0,0,0,24.6,93.28H21.668a3.981,3.981,0,0,0-3.1,1.3A4.876,4.876,0,0,0,17.4,97.984V102.5a4.458,4.458,0,0,0,1.056,3.1,3.507,3.507,0,0,0,2.736,1.176Zm25.008,5.616a7.793,7.793,0,0,1-6.1-2.568,9.717,9.717,0,0,1-2.3-6.744V88.048H47.06v15.12a3.97,3.97,0,0,0,.792,2.568,2.549,2.549,0,0,0,2.088.984h2.784a3.96,3.96,0,0,0,2.88-1.32,7.329,7.329,0,0,0,1.824-3.48V88.048h6.528V112H57.908v-3.072a8.973,8.973,0,0,1-2.712,2.5,6.049,6.049,0,0,1-3.1.96Zm42.96,0A9.36,9.36,0,0,1,85,109.792a9.169,9.169,0,0,1-2.616-6.816V97.5a10.4,10.4,0,0,1,1.248-5.16,8.674,8.674,0,0,1,3.5-3.456,10.8,10.8,0,0,1,5.232-1.224h2.64a7.327,7.327,0,0,1,2.832.6,6.954,6.954,0,0,1,2.4,1.608V78.4h6.528V112h-6.048v-3.168a7.515,7.515,0,0,1-2.592,2.568,6.506,6.506,0,0,1-3.408.984Zm3.552-5.616a4.311,4.311,0,0,0,3.288-1.416,6.064,6.064,0,0,0,1.512-3.768V97.408a5.485,5.485,0,0,0-1.464-3,3.643,3.643,0,0,0-2.664-1.128H93.188a3.981,3.981,0,0,0-3.1,1.3,4.876,4.876,0,0,0-1.176,3.408V102.5a4.458,4.458,0,0,0,1.056,3.1,3.507,3.507,0,0,0,2.736,1.176Zm24.48,5.616a9.293,9.293,0,0,1-6.048-1.872,6.056,6.056,0,0,1-2.3-4.944v-1.776a5.852,5.852,0,0,1,2.4-4.872,10.108,10.108,0,0,1,6.336-1.848h2.928a11.868,11.868,0,0,1,2.688.336,12.81,12.81,0,0,1,2.64.912v-2.5a2.544,2.544,0,0,0-.792-1.944,2.926,2.926,0,0,0-2.088-.744h-4.128a3.463,3.463,0,0,0-2.16.624,2.005,2.005,0,0,0-.816,1.68h-6.336a6.974,6.974,0,0,1,2.568-5.64,10.2,10.2,0,0,1,6.744-2.136h4.128A10.079,10.079,0,0,1,132.5,89.9a7.434,7.434,0,0,1,2.592,5.928V112h-6.048v-2.88a8.651,8.651,0,0,1-2.832,2.376,7.05,7.05,0,0,1-3.312.888Zm3.456-4.992a5.651,5.651,0,0,0,3.168-.912,5.205,5.205,0,0,0,2.016-2.448v-.816a5.911,5.911,0,0,0-2.136-.912,12.141,12.141,0,0,0-2.9-.336H120.5a2.905,2.905,0,0,0-1.872.576,1.867,1.867,0,0,0-.72,1.536v1.248a1.764,1.764,0,0,0,.792,1.488,3.47,3.47,0,0,0,2.088.576Zm25.488,4.992a10.277,10.277,0,0,1-7.008-2.3,7.64,7.64,0,0,1-2.64-6.048h6.432a2.663,2.663,0,0,0,.888,2.088,3.366,3.366,0,0,0,2.328.792h4.32q2.88,0,2.88-1.584v-.816a1.166,1.166,0,0,0-.48-.888,2.682,2.682,0,0,0-1.3-.552l-8.3-1.44a8.587,8.587,0,0,1-4.632-2.088,5.024,5.024,0,0,1-1.7-3.768V94.192a5.5,5.5,0,0,1,2.52-4.8,12.315,12.315,0,0,1,7.032-1.728h3.744a9.6,9.6,0,0,1,6.5,2.136,7.089,7.089,0,0,1,2.472,5.64h-6.432a2.144,2.144,0,0,0-.7-1.68,2.664,2.664,0,0,0-1.848-.624H149.3q-3.12,0-3.12,1.44v.768a1.138,1.138,0,0,0,.408.888,2.426,2.426,0,0,0,1.176.5L156.5,98.32a8.469,8.469,0,0,1,4.416,2.04,4.715,4.715,0,0,1,1.68,3.528v1.728a5.755,5.755,0,0,1-2.568,4.944,11.582,11.582,0,0,1-6.84,1.824Zm40.224,0a9.36,9.36,0,0,1-6.888-2.592,9.169,9.169,0,0,1-2.616-6.816V97.5a10.4,10.4,0,0,1,1.248-5.16,8.674,8.674,0,0,1,3.5-3.456,10.8,10.8,0,0,1,5.232-1.224h2.64a7.328,7.328,0,0,1,2.832.6,6.954,6.954,0,0,1,2.4,1.608V78.4h6.528V112h-6.048v-3.168a7.515,7.515,0,0,1-2.592,2.568,6.506,6.506,0,0,1-3.408.984Zm3.552-5.616a4.311,4.311,0,0,0,3.288-1.416,6.064,6.064,0,0,0,1.512-3.768V97.408a5.485,5.485,0,0,0-1.464-3,3.643,3.643,0,0,0-2.664-1.128h-2.928a3.981,3.981,0,0,0-3.1,1.3,4.876,4.876,0,0,0-1.176,3.408V102.5a4.459,4.459,0,0,0,1.056,3.1,3.507,3.507,0,0,0,2.736,1.176Zm26.208,5.616a12.129,12.129,0,0,1-5.352-1.128,8.65,8.65,0,0,1-3.624-3.168,8.539,8.539,0,0,1-1.3-4.68V97.216a9.514,9.514,0,0,1,1.3-4.992,8.862,8.862,0,0,1,3.624-3.36,11.517,11.517,0,0,1,5.352-1.2h3.84a10.413,10.413,0,0,1,7.392,2.592,8.993,8.993,0,0,1,2.784,6.912v5.088h-17.76v1.152a3.35,3.35,0,0,0,1.008,2.544,3.8,3.8,0,0,0,2.736.96H222.6a4.535,4.535,0,0,0,2.712-.744,2.292,2.292,0,0,0,1.032-1.944h6.432a7.324,7.324,0,0,1-1.3,4.272,8.284,8.284,0,0,1-3.624,2.88,13.361,13.361,0,0,1-5.352,1.008Zm7.584-14.832v-.384a4.334,4.334,0,0,0-1.008-3,3.428,3.428,0,0,0-2.688-1.128h-3.888a3.529,3.529,0,0,0-2.784,1.2,4.621,4.621,0,0,0-1.056,3.168v.144Zm10.848-9.5h6.048v2.88a7.722,7.722,0,0,1,2.736-2.376,7.134,7.134,0,0,1,3.36-.888h2.88a8.2,8.2,0,0,1,6.168,2.4A8.714,8.714,0,0,1,260.8,96.4V112h-6.528V96.64a3.53,3.53,0,0,0-.792-2.4,2.578,2.578,0,0,0-2.04-.912h-2.88a4.293,4.293,0,0,0-3,1.224,5.97,5.97,0,0,0-1.752,3.192V112h-6.528Zm28.8,0h6.048v2.88a7.722,7.722,0,0,1,2.736-2.376,7.134,7.134,0,0,1,3.36-.888h2.88a8.2,8.2,0,0,1,6.168,2.4A8.714,8.714,0,0,1,289.6,96.4V112h-6.528V96.64a3.53,3.53,0,0,0-.792-2.4,2.578,2.578,0,0,0-2.04-.912h-2.88a4.293,4.293,0,0,0-3,1.224,5.97,5.97,0,0,0-1.752,3.192V112h-6.528Zm36.624,13.1a7.43,7.43,0,0,1,.792-3.576,7.917,7.917,0,0,1,1.9-2.376,24.847,24.847,0,0,1,2.832-1.968,15.166,15.166,0,0,0,2.88-2.136,3.2,3.2,0,0,0,.912-2.328V87.04a2.946,2.946,0,0,0-1.056-2.376,4.258,4.258,0,0,0-2.832-.888H304a3.942,3.942,0,0,0-3.072,1.272,4.848,4.848,0,0,0-1.152,3.384h-6.624a10.872,10.872,0,0,1,1.344-5.448,9.182,9.182,0,0,1,3.816-3.672,12.071,12.071,0,0,1,5.688-1.3h4.128a12.678,12.678,0,0,1,5.5,1.128,8.757,8.757,0,0,1,3.7,3.168,8.509,8.509,0,0,1,1.32,4.728v1.728a7.8,7.8,0,0,1-.744,3.6,6.789,6.789,0,0,1-1.776,2.256,28.648,28.648,0,0,1-2.76,1.872,13.978,13.978,0,0,0-3.024,2.184,3.913,3.913,0,0,0-1.008,2.856v.672h-6.624Zm3.312,11.328a3.712,3.712,0,1,1,2.856-1.08A3.861,3.861,0,0,1,306.02,112.48ZM322.292,78.4h6.528V90.064h-6.528Zm9.312,0h6.528V90.064H331.6Z" transform="translate(590.052 4582.708)" fill="#022e3e"/>
    <path id="Pfad_6" data-name="Pfad 6" d="M80.784,70.272l1.92-1.728a9.478,9.478,0,0,0,3.328-7.3V57.024h8.7v4.224a18.535,18.535,0,0,1-1.568,7.744,15.426,15.426,0,0,1-4.576,5.824l-2.176,1.728Zm14.592,0,1.92-1.728a9.478,9.478,0,0,0,3.328-7.3V57.024h8.7v4.224a18.535,18.535,0,0,1-1.568,7.744,15.426,15.426,0,0,1-4.576,5.824l-2.176,1.728Zm46.72-16.7H125.328L121.36,64h-9.216L129.68,19.2h3.968a5.543,5.543,0,0,1,5.632,3.84L155.216,64H146Zm-14.4-7.424h12.032l-5.952-16.128h-.064ZM169.36,64.512a10.391,10.391,0,0,1-8.128-3.424A12.956,12.956,0,0,1,158.16,52.1V32.064h8.7v20.16a5.293,5.293,0,0,0,1.056,3.424A3.4,3.4,0,0,0,170.7,56.96h3.712a5.28,5.28,0,0,0,3.84-1.76,9.772,9.772,0,0,0,2.432-4.64v-18.5h8.7V64h-8.064V59.9a11.964,11.964,0,0,1-3.616,3.328,8.065,8.065,0,0,1-4.128,1.28Zm38.784,0q-5.824,0-9.344-3.072a10.187,10.187,0,0,1-3.52-8.064h8.576a3.55,3.55,0,0,0,1.184,2.784,4.489,4.489,0,0,0,3.1,1.056h5.76q3.84,0,3.84-2.112V54.016a1.555,1.555,0,0,0-.64-1.184,3.576,3.576,0,0,0-1.728-.736L204.3,50.176a11.449,11.449,0,0,1-6.176-2.784,6.7,6.7,0,0,1-2.272-5.024V40.256a7.337,7.337,0,0,1,3.36-6.4q3.36-2.3,9.376-2.3h4.992a12.8,12.8,0,0,1,8.672,2.848,9.451,9.451,0,0,1,3.3,7.52h-8.576a2.859,2.859,0,0,0-.928-2.24,3.552,3.552,0,0,0-2.464-.832H208.72q-4.16,0-4.16,1.92v1.024a1.517,1.517,0,0,0,.544,1.184,3.235,3.235,0,0,0,1.568.672L218.32,45.76a11.292,11.292,0,0,1,5.888,2.72,6.286,6.286,0,0,1,2.24,4.7v2.3a7.673,7.673,0,0,1-3.424,6.592q-3.424,2.432-9.12,2.432Zm53.632,0a12.48,12.48,0,0,1-9.184-3.456,12.226,12.226,0,0,1-3.488-9.088v-7.3a13.861,13.861,0,0,1,1.664-6.88,11.566,11.566,0,0,1,4.672-4.608,14.4,14.4,0,0,1,6.976-1.632h3.52a9.77,9.77,0,0,1,3.776.8,9.272,9.272,0,0,1,3.2,2.144V19.2h8.7V64h-8.064V59.776A10.02,10.02,0,0,1,270.1,63.2a8.675,8.675,0,0,1-4.544,1.312Zm4.736-7.488a5.747,5.747,0,0,0,4.384-1.888,8.085,8.085,0,0,0,2.016-5.024V44.544a7.314,7.314,0,0,0-1.952-4,4.857,4.857,0,0,0-3.552-1.5h-3.9a5.308,5.308,0,0,0-4.128,1.728,6.5,6.5,0,0,0-1.568,4.544v6.016a5.945,5.945,0,0,0,1.408,4.128,4.676,4.676,0,0,0,3.648,1.568Zm34.944,7.488a16.172,16.172,0,0,1-7.136-1.5,11.533,11.533,0,0,1-4.832-4.224,11.386,11.386,0,0,1-1.728-6.24V44.288a12.685,12.685,0,0,1,1.728-6.656,11.816,11.816,0,0,1,4.832-4.48,15.356,15.356,0,0,1,7.136-1.6h5.12q6.144,0,9.856,3.456a11.991,11.991,0,0,1,3.712,9.216v6.784h-23.68v1.536a4.466,4.466,0,0,0,1.344,3.392,5.071,5.071,0,0,0,3.648,1.28h4.992a6.047,6.047,0,0,0,3.616-.992,3.056,3.056,0,0,0,1.376-2.592h8.576a9.765,9.765,0,0,1-1.728,5.7,11.045,11.045,0,0,1-4.832,3.84,17.815,17.815,0,0,1-7.136,1.344Zm10.112-19.776v-.512a5.779,5.779,0,0,0-1.344-4,4.57,4.57,0,0,0-3.584-1.5h-5.184a4.7,4.7,0,0,0-3.712,1.6,6.161,6.161,0,0,0-1.408,4.224v.192Zm14.464-12.672H334.1v4.1a9.054,9.054,0,0,1,3.488-3.04,10.181,10.181,0,0,1,4.768-1.184H346.7v7.552h-4.352a7.573,7.573,0,0,0-5.5,2.048,6.992,6.992,0,0,0-2.112,5.248V64h-8.7Zm-167.3,85.5H141.968L138,128h-9.216L146.32,83.2h3.968a5.543,5.543,0,0,1,5.632,3.84L171.856,128H162.64Zm-14.4-7.424h12.032l-5.952-16.128h-.064Zm31.488-14.08h8.064V99.52a10.01,10.01,0,0,1,3.424-2.88,8.736,8.736,0,0,1,4.064-1.088h4.032a14.213,14.213,0,0,1,6.784,1.568,11.113,11.113,0,0,1,4.544,4.384,12.854,12.854,0,0,1,1.6,6.464v7.168a14.826,14.826,0,0,1-1.6,7.008,11.481,11.481,0,0,1-4.48,4.7,13.064,13.064,0,0,1-6.656,1.664h-4.16a9.092,9.092,0,0,1-3.68-.832,9.966,9.966,0,0,1-3.232-2.24V140.8h-8.7Zm18.624,24.96a4.555,4.555,0,0,0,3.776-1.792,7.45,7.45,0,0,0,1.408-4.736v-5.888a5.657,5.657,0,0,0-1.44-4.032,4.975,4.975,0,0,0-3.808-1.536h-3.9a5.192,5.192,0,0,0-3.52,1.5,8.726,8.726,0,0,0-2.432,3.872v6.336a7.668,7.668,0,0,0,1.952,4.544,5.289,5.289,0,0,0,4,1.728Zm20.032-24.96h8.064V99.52a10.01,10.01,0,0,1,3.424-2.88,8.736,8.736,0,0,1,4.064-1.088h4.032a14.213,14.213,0,0,1,6.784,1.568,11.113,11.113,0,0,1,4.544,4.384,12.854,12.854,0,0,1,1.6,6.464v7.168a14.826,14.826,0,0,1-1.6,7.008,11.481,11.481,0,0,1-4.48,4.7,13.064,13.064,0,0,1-6.656,1.664H230.1a9.092,9.092,0,0,1-3.68-.832,9.966,9.966,0,0,1-3.232-2.24V140.8h-8.7Zm18.624,24.96a4.555,4.555,0,0,0,3.776-1.792,7.45,7.45,0,0,0,1.408-4.736v-5.888a5.657,5.657,0,0,0-1.44-4.032,4.975,4.975,0,0,0-3.808-1.536h-3.9a5.192,5.192,0,0,0-3.52,1.5,8.726,8.726,0,0,0-2.432,3.872v6.336a7.668,7.668,0,0,0,1.952,4.544,5.289,5.289,0,0,0,4,1.728ZM254.352,83.2h8.832v31.68h-8.832Zm4.416,45.44a4.949,4.949,0,1,1,3.808-1.44A5.148,5.148,0,0,1,258.768,128.64Zm25.088-39.68-1.92,1.728a9.478,9.478,0,0,0-3.328,7.3v4.224h-8.7V97.984a18.535,18.535,0,0,1,1.568-7.744,15.426,15.426,0,0,1,4.576-5.824l2.176-1.728Zm13.952,0-1.92,1.728a9.478,9.478,0,0,0-3.328,7.3v4.224h-8.7V97.984a18.535,18.535,0,0,1,1.568-7.744A15.426,15.426,0,0,1,290,84.416l2.176-1.728Z" transform="translate(928.683 4708.514)" fill="#022e3e"/>
  </g>
</svg>
