<?xml version="1.0" encoding="utf-8"?>
<!-- Generator: Adobe Illustrator 25.4.1, SVG Export Plug-In . SVG Version: 6.00 Build 0)  -->
<svg version="1.1" id="Ebene_1" xmlns="http://www.w3.org/2000/svg" xmlns:xlink="http://www.w3.org/1999/xlink" x="0px" y="0px"
	 viewBox="0 0 825.1 554.1" style="enable-background:new 0 0 825.1 554.1;" xml:space="preserve">
<style type="text/css">
	.st0{fill:#333333;}
	.st1{fill:#FFFFFF;}
	.st2{fill:#022E3E;}
</style>
<ellipse class="st0" cx="589.4" cy="378.3" rx="226.2" ry="168.8"/>
<ellipse class="st1" cx="237.4" cy="212.8" rx="226.2" ry="168.8"/>
<g id="Gruppe_3" transform="translate(-528.685 -4435.777)">
	<path id="Pfad_7" class="st2" d="M599.7,4635.4l1.4-1.3c1.6-1.4,2.5-3.4,2.5-5.5v-3.2h6.5v3.2c0,2-0.4,4-1.2,5.8
		c-0.8,1.7-2,3.2-3.4,4.4l-1.6,1.3L599.7,4635.4z M610.7,4635.4l1.4-1.3c1.6-1.4,2.5-3.4,2.5-5.5v-3.2h6.5v3.2c0,2-0.4,4-1.2,5.8
		c-0.8,1.7-2,3.2-3.4,4.4l-1.6,1.3L610.7,4635.4z M633.3,4630.7c-1,0-1.9-0.3-2.7-0.8c-0.9-0.8-1.4-1.8-1.5-2.9l-6-29.9h6.7
		l4.1,23.9h0.1l7-22.1h2.4c0.7,0,1.5,0.2,2.1,0.6c0.7,0.6,1.2,1.4,1.4,2.3l5.9,19.2h0.1l4.1-23.8h6.7l-6,29.9
		c-0.1,1.1-0.6,2.1-1.4,2.8c-0.8,0.6-1.8,1-2.8,0.9h-2.8l-7.2-23h-0.1l-7.3,23H633.3z M674.7,4631.1c-1.9,0-3.7-0.4-5.4-1.2
		c-1.5-0.7-2.8-1.9-3.6-3.3c-0.9-1.5-1.3-3.2-1.3-5v-5.6c0-1.8,0.4-3.5,1.3-5c0.9-1.5,2.1-2.6,3.6-3.4c1.7-0.8,3.5-1.2,5.4-1.2h4.3
		c1.9,0,3.7,0.4,5.4,1.2c1.5,0.8,2.8,1.9,3.6,3.4c0.9,1.5,1.3,3.3,1.3,5v5.6c0,1.8-0.4,3.5-1.3,5c-0.9,1.4-2.1,2.6-3.6,3.3
		c-1.7,0.8-3.5,1.2-5.4,1.2H674.7z M678.9,4625.5c1.1,0,2.1-0.4,2.8-1.2c0.7-0.9,1.1-2,1.1-3.2v-4.7c0.1-1.2-0.3-2.3-1.1-3.2
		c-0.7-0.8-1.7-1.3-2.8-1.2h-4.1c-1.1,0-2.1,0.4-2.8,1.2c-0.7,0.9-1.1,2-1.1,3.2v4.7c-0.1,1.2,0.3,2.3,1.1,3.2
		c0.7,0.8,1.7,1.3,2.7,1.2L678.9,4625.5z M694,4597.1h6.5v12c0.7-0.8,1.6-1.5,2.6-2c0.9-0.5,2-0.7,3-0.8h3c2.3-0.1,4.5,0.8,6.2,2.4
		c1.6,1.7,2.4,4,2.3,6.3v15.6h-6.5v-15.4c0-0.9-0.2-1.7-0.8-2.4c-0.5-0.6-1.3-0.9-2-0.9h-3c-1.1,0-2.2,0.4-3,1.2
		c-0.9,0.9-1.5,2-1.8,3.2v14.3H694L694,4597.1z M732.2,4631.1c-1.8,0-3.7-0.3-5.4-1.1c-1.5-0.7-2.7-1.8-3.6-3.2
		c-0.9-1.4-1.3-3-1.3-4.7v-6.2c0-1.8,0.4-3.5,1.3-5c0.9-1.4,2.1-2.6,3.6-3.4c1.7-0.8,3.5-1.2,5.4-1.2h3.8c2.7-0.1,5.4,0.8,7.4,2.6
		c1.9,1.8,2.9,4.3,2.8,6.9v5.1h-17.8v1.2c0,1,0.3,1.9,1,2.5c0.7,0.7,1.7,1,2.7,1h3.7c1,0,1.9-0.2,2.7-0.7c0.7-0.4,1-1.2,1-1.9h6.4
		c0,1.5-0.4,3-1.3,4.3c-0.9,1.3-2.2,2.3-3.6,2.9c-1.7,0.7-3.5,1-5.4,1H732.2z M739.8,4616.3v-0.4c0.1-1.1-0.3-2.2-1-3
		c-0.7-0.8-1.7-1.2-2.7-1.1h-3.9c-1.1,0-2.1,0.4-2.8,1.2c-0.7,0.9-1.1,2-1.1,3.2v0.1L739.8,4616.3z M750.6,4606.8h6v3.1
		c0.7-1,1.6-1.8,2.6-2.3c1.1-0.6,2.3-0.9,3.6-0.9h3.3v5.7h-3.3c-1.5-0.1-3,0.5-4.1,1.5c-1.1,1-1.6,2.5-1.6,3.9v12.9h-6.5
		L750.6,4606.8z M789.7,4630.7c-2.1,0-3.5-1.2-4.1-3.7l-4.8-20.2h6.8l2.9,15.2h0.1l5.2-14.6h2.5c0.6,0,1.2,0.1,1.8,0.5
		c0.5,0.4,0.9,0.9,1.1,1.5l4.5,12.7h0.1l2.9-15.2h6.8l-4.8,20.2c-0.6,2.5-2,3.7-4.1,3.7h-3l-5.3-15.2l-5.5,15.2H789.7z
		 M827.5,4631.1c-1.8,0-3.7-0.3-5.4-1.1c-1.5-0.7-2.7-1.8-3.6-3.2c-0.9-1.4-1.3-3-1.3-4.7v-6.2c0-1.8,0.4-3.5,1.3-5
		c0.9-1.4,2.1-2.6,3.6-3.4c1.7-0.8,3.5-1.2,5.4-1.2h3.8c2.7-0.1,5.4,0.8,7.4,2.6c1.9,1.8,2.9,4.3,2.8,6.9v5.1h-17.8v1.2
		c0,1,0.3,1.9,1,2.5c0.7,0.7,1.7,1,2.7,1h3.7c1,0,1.9-0.2,2.7-0.7c0.7-0.4,1-1.2,1-1.9h6.4c0,1.5-0.4,3-1.3,4.3
		c-0.9,1.3-2.2,2.3-3.6,2.9c-1.7,0.7-3.5,1-5.4,1H827.5z M835.1,4616.3v-0.4c0.1-1.1-0.3-2.2-1-3c-0.7-0.8-1.7-1.2-2.7-1.1h-3.9
		c-1.1,0-2.1,0.4-2.8,1.2c-0.7,0.9-1.1,2-1.1,3.2v0.1H835.1z M850.1,4604.5c-1.1,0.1-2.2-0.3-3-1.1c-0.8-0.7-1.2-1.8-1.1-2.9
		c0-1.1,0.4-2.1,1.1-2.9c1.7-1.4,4.3-1.4,6,0c0.8,0.7,1.2,1.8,1.1,2.9c0,1.1-0.4,2.1-1.1,2.9
		C852.2,4604.2,851.2,4604.6,850.1,4604.5L850.1,4604.5z M846.8,4606.8h6.5v24h-6.5L846.8,4606.8z M909.6,4630.7
		c-2.8,0-4.9-0.6-6.2-1.9c-1.3-1.3-2-3.3-2-6v-10.5h-4.2v-5.6h4.4v-7.2h6.3v7.2h6.2v5.6H908v10.2c-0.1,0.7,0.1,1.4,0.5,2
		c0.4,0.4,1,0.7,1.6,0.6h4.1v5.6H909.6z M610.4,4695.1c-2.6,0.1-5-0.8-6.9-2.6c-1.8-1.8-2.7-4.3-2.6-6.8v-5.5c0-1.8,0.4-3.6,1.2-5.2
		c0.8-1.5,2-2.7,3.5-3.5c1.6-0.8,3.4-1.3,5.2-1.2h2.6c1,0,1.9,0.2,2.8,0.6c0.9,0.4,1.7,0.9,2.4,1.6v-11.5h6.5v33.6h-6v-3.2
		c-0.6,1.1-1.5,1.9-2.6,2.6c-1,0.6-2.2,1-3.4,1H610.4z M614,4689.5c1.2,0,2.4-0.5,3.3-1.4c0.9-1,1.5-2.4,1.5-3.8v-4.2
		c-0.2-1.1-0.7-2.2-1.5-3c-0.7-0.7-1.7-1.1-2.7-1.1h-2.9c-1.2,0-2.3,0.4-3.1,1.3c-0.8,0.9-1.2,2.2-1.2,3.4v4.5
		c-0.1,1.1,0.3,2.2,1.1,3.1c0.7,0.8,1.7,1.2,2.7,1.2L614,4689.5z M639,4695.1c-2.3,0.1-4.5-0.8-6.1-2.6c-1.6-1.9-2.4-4.3-2.3-6.7
		v-15h6.5v15.1c0,0.9,0.2,1.8,0.8,2.6c0.5,0.6,1.3,1,2.1,1h2.8c1.1,0,2.1-0.5,2.9-1.3c0.9-1,1.5-2.2,1.8-3.5v-13.9h6.5v24h-6v-3.1
		c-0.7,1-1.6,1.9-2.7,2.5c-0.9,0.6-2,0.9-3.1,1L639,4695.1z M681.9,4695.1c-2.6,0.1-5-0.8-6.9-2.6c-1.8-1.8-2.7-4.3-2.6-6.8v-5.5
		c0-1.8,0.4-3.6,1.2-5.2c0.8-1.5,2-2.7,3.5-3.5c1.6-0.8,3.4-1.3,5.2-1.2h2.6c1,0,1.9,0.2,2.8,0.6c0.9,0.4,1.7,0.9,2.4,1.6v-11.5h6.5
		v33.6h-6v-3.2c-0.6,1.1-1.5,1.9-2.6,2.6c-1,0.6-2.2,1-3.4,1H681.9z M685.5,4689.5c1.2,0,2.4-0.5,3.3-1.4c0.9-1,1.5-2.4,1.5-3.8
		v-4.2c-0.2-1.1-0.7-2.2-1.5-3c-0.7-0.7-1.7-1.1-2.7-1.1h-2.9c-1.2,0-2.3,0.4-3.1,1.3c-0.8,0.9-1.2,2.2-1.2,3.4v4.5
		c-0.1,1.1,0.3,2.2,1.1,3.1c0.7,0.8,1.7,1.2,2.7,1.2L685.5,4689.5z M710,4695.1c-2.2,0.1-4.3-0.6-6-1.9c-1.5-1.2-2.4-3-2.3-4.9v-1.8
		c0-1.9,0.8-3.7,2.4-4.9c1.8-1.3,4.1-2,6.3-1.8h2.9c0.9,0,1.8,0.1,2.7,0.3c0.9,0.2,1.8,0.5,2.6,0.9v-2.5c0-0.7-0.3-1.4-0.8-1.9
		c-0.6-0.5-1.3-0.8-2.1-0.7h-4.1c-0.8,0-1.5,0.2-2.2,0.6c-0.5,0.4-0.8,1-0.8,1.7h-6.3c-0.1-2.2,0.9-4.3,2.6-5.6
		c1.9-1.5,4.3-2.3,6.7-2.1h4.1c2.5-0.1,4.9,0.7,6.8,2.2c1.7,1.5,2.7,3.7,2.6,5.9v16.2h-6v-2.9c-0.8,1-1.7,1.8-2.8,2.4
		c-1,0.6-2.2,0.9-3.3,0.9H710z M713.4,4690.1c1.1,0,2.2-0.3,3.2-0.9c0.9-0.6,1.6-1.4,2-2.4v-0.8c-0.6-0.4-1.4-0.8-2.1-0.9
		c-0.9-0.2-1.9-0.3-2.9-0.3h-3c-0.7,0-1.3,0.2-1.9,0.6c-0.5,0.4-0.7,0.9-0.7,1.5v1.2c0,0.6,0.3,1.2,0.8,1.5c0.6,0.4,1.3,0.6,2.1,0.6
		H713.4z M738.9,4695.1c-2.5,0.1-5-0.7-7-2.3c-1.8-1.5-2.7-3.7-2.6-6h6.4c0,0.8,0.3,1.6,0.9,2.1c0.6,0.5,1.5,0.8,2.3,0.8h4.3
		c1.9,0,2.9-0.5,2.9-1.6v-0.8c0-0.4-0.2-0.7-0.5-0.9c-0.4-0.3-0.8-0.5-1.3-0.6l-8.3-1.4c-1.7-0.2-3.3-0.9-4.6-2.1
		c-1.1-1-1.7-2.3-1.7-3.8v-1.6c-0.1-1.9,0.9-3.8,2.5-4.8c2.1-1.3,4.6-1.9,7-1.7h3.7c2.4-0.1,4.7,0.6,6.5,2.1
		c1.6,1.4,2.6,3.5,2.5,5.6h-6.4c0-0.6-0.2-1.3-0.7-1.7c-0.5-0.4-1.2-0.7-1.8-0.6h-3.6c-2.1,0-3.1,0.5-3.1,1.4v0.8
		c0,0.3,0.1,0.7,0.4,0.9c0.3,0.3,0.7,0.4,1.2,0.5l8.7,1.6c1.6,0.2,3.2,0.9,4.4,2c1,0.9,1.7,2.2,1.7,3.5v1.7c0.1,2-0.9,3.8-2.6,4.9
		c-2,1.3-4.4,1.9-6.8,1.8H738.9z M779.1,4695.1c-2.6,0.1-5-0.8-6.9-2.6c-1.8-1.8-2.7-4.3-2.6-6.8v-5.5c0-1.8,0.4-3.6,1.2-5.2
		c0.8-1.5,2-2.7,3.5-3.5c1.6-0.8,3.4-1.3,5.2-1.2h2.6c1,0,1.9,0.2,2.8,0.6c0.9,0.4,1.7,0.9,2.4,1.6v-11.5h6.5v33.6h-6v-3.2
		c-0.6,1.1-1.5,1.9-2.6,2.6c-1,0.6-2.2,1-3.4,1H779.1z M782.7,4689.5c1.2,0,2.4-0.5,3.3-1.4c0.9-1,1.5-2.4,1.5-3.8v-4.2
		c-0.2-1.1-0.7-2.2-1.5-3c-0.7-0.7-1.7-1.1-2.7-1.1h-2.9c-1.2,0-2.3,0.4-3.1,1.3c-0.8,0.9-1.2,2.2-1.2,3.4v4.5
		c-0.1,1.1,0.3,2.2,1.1,3.1c0.7,0.8,1.7,1.2,2.7,1.2L782.7,4689.5z M808.9,4695.1c-1.8,0-3.7-0.3-5.4-1.1c-1.5-0.7-2.7-1.8-3.6-3.2
		c-0.9-1.4-1.3-3-1.3-4.7v-6.2c0-1.8,0.4-3.5,1.3-5c0.9-1.4,2.1-2.6,3.6-3.4c1.7-0.8,3.5-1.2,5.4-1.2h3.8c2.7-0.1,5.4,0.8,7.4,2.6
		c1.9,1.8,2.9,4.3,2.8,6.9v5.1h-17.8v1.2c0,1,0.3,1.9,1,2.5c0.7,0.7,1.7,1,2.7,1h3.7c1,0,1.9-0.2,2.7-0.7c0.7-0.4,1-1.2,1-1.9h6.4
		c0,1.5-0.4,3-1.3,4.3c-0.9,1.3-2.2,2.3-3.6,2.9c-1.7,0.7-3.5,1-5.4,1H808.9z M816.5,4680.3v-0.4c0.1-1.1-0.3-2.2-1-3
		c-0.7-0.8-1.7-1.2-2.7-1.1h-3.9c-1.1,0-2.1,0.4-2.8,1.2c-0.7,0.9-1.1,2-1.1,3.2v0.1H816.5z M827.3,4670.8h6v2.9
		c0.7-1,1.6-1.8,2.7-2.4c1-0.6,2.2-0.9,3.4-0.9h2.9c2.3-0.1,4.5,0.8,6.2,2.4c1.6,1.7,2.4,4,2.3,6.3v15.6h-6.5v-15.4
		c0-0.9-0.2-1.7-0.8-2.4c-0.5-0.6-1.3-0.9-2-0.9h-2.9c-1.1,0-2.2,0.4-3,1.2c-0.9,0.9-1.5,2-1.8,3.2v14.3h-6.5L827.3,4670.8z
		 M856.1,4670.8h6v2.9c0.7-1,1.6-1.8,2.7-2.4c1-0.6,2.2-0.9,3.4-0.9h2.9c2.3-0.1,4.5,0.8,6.2,2.4c1.6,1.7,2.4,4,2.3,6.3v15.6h-6.5
		v-15.4c0-0.9-0.2-1.7-0.8-2.4c-0.5-0.6-1.3-0.9-2-0.9h-2.9c-1.1,0-2.2,0.4-3,1.2c-0.9,0.9-1.5,2-1.8,3.2v14.3h-6.5L856.1,4670.8z
		 M892.8,4683.9c0-1.2,0.2-2.5,0.8-3.6c0.5-0.9,1.1-1.7,1.9-2.4c0.9-0.7,1.8-1.4,2.8-2c1-0.6,2-1.3,2.9-2.1c0.6-0.6,0.9-1.5,0.9-2.3
		v-1.7c0-0.9-0.4-1.8-1.1-2.4c-0.8-0.6-1.8-0.9-2.8-0.9h-4.1c-1.2,0-2.3,0.4-3.1,1.3c-0.8,0.9-1.2,2.2-1.2,3.4h-6.6
		c0-1.9,0.4-3.8,1.3-5.4c0.9-1.6,2.2-2.8,3.8-3.7c1.8-0.9,3.7-1.3,5.7-1.3h4.1c1.9,0,3.8,0.3,5.5,1.1c1.5,0.7,2.8,1.8,3.7,3.2
		c0.9,1.4,1.4,3.1,1.3,4.7v1.7c0,1.2-0.2,2.5-0.7,3.6c-0.4,0.9-1,1.6-1.8,2.3c-0.9,0.7-1.8,1.3-2.8,1.9c-1.1,0.6-2.1,1.3-3,2.2
		c-0.7,0.8-1.1,1.8-1,2.9v0.7h-6.6L892.8,4683.9z M896.1,4695.2c-2-0.1-3.6-1.9-3.5-3.9c0.1-2,1.9-3.6,3.9-3.5
		c2,0.1,3.6,1.9,3.5,3.9c-0.1,0.9-0.4,1.8-1.1,2.4C898.2,4694.8,897.1,4695.2,896.1,4695.2z M912.3,4661.1h6.5v11.7h-6.5V4661.1z
		 M921.7,4661.1h6.5v11.7h-6.5L921.7,4661.1z"/>
	<path id="Pfad_6" class="st1" d="M989.5,4817.8l1.9-1.7c2.1-1.8,3.4-4.5,3.3-7.3v-4.2h8.7v4.2c0,2.7-0.5,5.3-1.6,7.7
		c-1,2.3-2.6,4.3-4.6,5.8l-2.2,1.7L989.5,4817.8z M1004.1,4817.8l1.9-1.7c2.1-1.8,3.4-4.5,3.3-7.3v-4.2h8.7v4.2
		c0,2.7-0.5,5.3-1.6,7.7c-1,2.3-2.6,4.3-4.6,5.8l-2.2,1.7L1004.1,4817.8z M1050.8,4801.1H1034l-4,10.4h-9.2l17.5-44.8h4
		c2.5-0.2,4.9,1.4,5.6,3.8l15.9,41h-9.2L1050.8,4801.1z M1036.4,4793.7h12l-6-16.1h-0.1L1036.4,4793.7z M1078,4812
		c-3.1,0.1-6.1-1.1-8.1-3.4c-2.1-2.5-3.2-5.7-3.1-9v-20h8.7v20.2c-0.1,1.2,0.3,2.4,1.1,3.4c0.7,0.9,1.7,1.3,2.8,1.3h3.7
		c1.5,0,2.9-0.7,3.8-1.8c1.2-1.3,2.1-2.9,2.4-4.6v-18.5h8.7v31.9h-8.1v-4.1c-1,1.3-2.2,2.5-3.6,3.3c-1.2,0.8-2.7,1.2-4.1,1.3
		L1078,4812z M1116.8,4812c-3.9,0-7-1-9.3-3.1c-2.3-2-3.6-5-3.5-8.1h8.6c0,1.1,0.4,2.1,1.2,2.8c0.9,0.7,2,1.1,3.1,1.1h5.8
		c2.6,0,3.8-0.7,3.8-2.1v-1.1c0-0.5-0.3-0.9-0.6-1.2c-0.5-0.4-1.1-0.6-1.7-0.7l-11.1-1.9c-2.3-0.3-4.4-1.3-6.2-2.8
		c-1.4-1.3-2.3-3.1-2.3-5v-2.1c-0.1-2.6,1.2-5,3.4-6.4c2.2-1.5,5.4-2.3,9.4-2.3h5c3.1-0.1,6.2,0.9,8.7,2.8c2.2,1.9,3.4,4.6,3.3,7.5
		h-8.6c0-0.8-0.3-1.7-0.9-2.2c-0.7-0.6-1.6-0.9-2.5-0.8h-4.9c-2.8,0-4.2,0.6-4.2,1.9v1c0,0.5,0.2,0.9,0.5,1.2c0.5,0.4,1,0.6,1.6,0.7
		l11.6,2.1c2.2,0.3,4.2,1.3,5.9,2.7c1.4,1.2,2.2,2.9,2.2,4.7v2.3c0.1,2.6-1.2,5.1-3.4,6.6c-2.3,1.6-5.3,2.4-9.1,2.4L1116.8,4812z
		 M1170.5,4812c-3.4,0.1-6.7-1.1-9.2-3.5c-2.4-2.4-3.6-5.7-3.5-9.1v-7.3c-0.1-2.4,0.5-4.8,1.7-6.9c1.1-2,2.7-3.6,4.7-4.6
		c2.2-1.1,4.6-1.7,7-1.6h3.5c1.3,0,2.6,0.3,3.8,0.8c1.2,0.5,2.3,1.2,3.2,2.1v-15.3h8.7v44.8h-8.1v-4.2c-0.9,1.4-2,2.6-3.4,3.4
		c-1.4,0.8-2.9,1.3-4.5,1.3H1170.5z M1175.2,4804.5c1.7,0,3.3-0.7,4.4-1.9c1.2-1.4,1.9-3.2,2-5v-5.6c-0.2-1.5-0.9-2.9-2-4
		c-0.9-1-2.2-1.5-3.6-1.5h-3.9c-1.6-0.1-3.1,0.6-4.1,1.7c-1.1,1.3-1.6,2.9-1.6,4.5v6c-0.1,1.5,0.4,3,1.4,4.1c0.9,1,2.3,1.6,3.6,1.6
		L1175.2,4804.5z M1210.1,4812c-2.5,0-4.9-0.5-7.1-1.5c-2-0.9-3.7-2.4-4.8-4.2c-1.2-1.9-1.8-4-1.7-6.2v-8.3c0-2.3,0.6-4.6,1.7-6.7
		c1.2-1.9,2.8-3.5,4.8-4.5c2.2-1.1,4.7-1.6,7.1-1.6h5.1c4.1,0,7.4,1.2,9.9,3.5c2.5,2.4,3.9,5.8,3.7,9.2v6.8h-23.7v1.5
		c-0.1,1.3,0.4,2.5,1.3,3.4c1,0.9,2.3,1.4,3.6,1.3h5c1.3,0.1,2.5-0.3,3.6-1c0.9-0.6,1.4-1.5,1.4-2.6h8.6c0,2-0.6,4-1.7,5.7
		c-1.2,1.7-2.9,3-4.8,3.8c-2.3,0.9-4.7,1.4-7.1,1.3L1210.1,4812z M1220.3,4792.2v-0.5c0.1-1.5-0.4-2.9-1.3-4c-0.9-1-2.2-1.6-3.6-1.5
		h-5.2c-1.4-0.1-2.8,0.5-3.7,1.6c-1,1.2-1.5,2.7-1.4,4.2v0.2L1220.3,4792.2z M1234.7,4779.6h8.1v4.1c0.9-1.3,2.1-2.3,3.5-3
		c1.5-0.8,3.1-1.2,4.8-1.2h4.3v7.6h-4.4c-2-0.1-4,0.7-5.5,2c-1.4,1.4-2.2,3.3-2.1,5.2v17.2h-8.7L1234.7,4779.6z M1067.4,4865.1
		h-16.8l-4,10.4h-9.2l17.5-44.8h4c2.5-0.2,4.9,1.4,5.6,3.8l15.9,41h-9.2L1067.4,4865.1z M1053,4857.7h12l-6-16.1h-0.1L1053,4857.7z
		 M1084.5,4843.6h8.1v3.5c0.9-1.2,2.1-2.2,3.4-2.9c1.2-0.7,2.6-1.1,4.1-1.1h4c2.4,0,4.7,0.5,6.8,1.6c1.9,1,3.5,2.5,4.5,4.4
		c1.1,2,1.6,4.2,1.6,6.5v7.2c0,2.4-0.5,4.8-1.6,7c-1,2-2.6,3.6-4.5,4.7c-2,1.1-4.3,1.7-6.7,1.7h-4.2c-1.3,0-2.5-0.3-3.7-0.8
		c-1.2-0.5-2.3-1.3-3.2-2.2v15.4h-8.7L1084.5,4843.6z M1103.1,4868.5c1.5,0,2.9-0.6,3.8-1.8c1-1.4,1.5-3,1.4-4.7v-5.9
		c0.1-1.5-0.5-2.9-1.4-4c-1-1-2.4-1.6-3.8-1.5h-3.9c-1.3,0-2.6,0.6-3.5,1.5c-1.1,1.1-2,2.4-2.4,3.9v6.3c0.1,1.7,0.8,3.3,2,4.5
		c1,1.1,2.5,1.8,4,1.7L1103.1,4868.5z M1123.2,4843.6h8.1v3.5c0.9-1.2,2.1-2.2,3.4-2.9c1.2-0.7,2.6-1.1,4.1-1.1h4
		c2.4,0,4.7,0.5,6.8,1.6c1.9,1,3.5,2.5,4.5,4.4c1.1,2,1.6,4.2,1.6,6.5v7.2c0,2.4-0.5,4.8-1.6,7c-1,2-2.6,3.6-4.5,4.7
		c-2,1.1-4.3,1.7-6.7,1.7h-4.2c-1.3,0-2.5-0.3-3.7-0.8c-1.2-0.5-2.3-1.3-3.2-2.2v15.4h-8.7L1123.2,4843.6z M1141.8,4868.5
		c1.5,0,2.9-0.6,3.8-1.8c1-1.4,1.5-3,1.4-4.7v-5.9c0.1-1.5-0.5-2.9-1.4-4c-1-1-2.4-1.6-3.8-1.5h-3.9c-1.3,0-2.6,0.6-3.5,1.5
		c-1.1,1.1-2,2.4-2.4,3.9v6.3c0.1,1.7,0.8,3.3,2,4.5c1,1.1,2.5,1.8,4,1.7L1141.8,4868.5z M1163,4830.7h8.8v31.7h-8.8V4830.7z
		 M1167.5,4876.2c-2.7-0.2-4.8-2.5-4.6-5.2c0.2-2.7,2.5-4.8,5.2-4.6c2.7,0.2,4.8,2.5,4.6,5.2c-0.1,1.2-0.6,2.3-1.4,3.2
		C1170.2,4875.7,1168.9,4876.2,1167.5,4876.2z M1192.5,4836.5l-1.9,1.7c-2.1,1.8-3.4,4.5-3.3,7.3v4.2h-8.7v-4.2
		c0-2.7,0.5-5.3,1.6-7.7c1-2.3,2.6-4.3,4.6-5.8l2.2-1.7L1192.5,4836.5z M1206.5,4836.5l-1.9,1.7c-2.1,1.8-3.4,4.5-3.3,7.3v4.2h-8.7
		v-4.2c0-2.7,0.5-5.3,1.6-7.7c1-2.3,2.6-4.3,4.6-5.8l2.2-1.7L1206.5,4836.5z"/>
</g>
<g>
	<path class="st2" d="M346,193.2c-1.6-1.4-2.3-3.4-2.3-6h6c0,0.9,0.2,1.5,0.7,1.9c0.5,0.4,1.2,0.6,2,0.6h2.2c0.8,0,1.4-0.2,1.9-0.6
		s0.7-1,0.7-1.7v-0.9c0-0.8-0.3-1.5-0.9-2c-0.6-0.6-1.6-1.2-2.8-2c-1.5-0.9-2.6-1.8-3.4-2.5c-0.8-0.8-1.2-1.7-1.2-2.9v-1
		c0-1.3,0.5-2.4,1.5-3.3c1-0.9,2.3-1.6,4-1.9c0-1.2-0.4-2.2-1.2-3c-0.8-0.8-1.8-1.1-3.1-1.1h-3.5c-1.6,0-2.9,0.5-3.9,1.4
		c-1,0.9-1.5,2.2-1.5,3.7v23.1h-6.5v-17.1h-4.1v-5.6h4.1v-0.5c0-2.1,0.5-4,1.5-5.6c1-1.6,2.4-2.9,4.2-3.7c1.8-0.9,3.9-1.3,6.2-1.3
		h3.5c2.1,0,4,0.4,5.6,1.2s2.9,1.9,3.8,3.4c0.9,1.5,1.3,3.2,1.3,5.1v3.7h-1.3c-1.4,0-2.4,0.1-3.1,0.4c-0.7,0.3-1,0.7-1,1.3v0.6
		c0,0.3,0.2,0.6,0.6,0.9c0.4,0.3,1,0.7,1.9,1.2c1.2,0.7,2.1,1.3,2.9,1.9c0.8,0.6,1.5,1.4,2.1,2.3c0.6,0.9,0.9,2,0.9,3.3v0.9
		c0,2.4-0.8,4.4-2.4,5.8c-1.6,1.4-3.8,2.1-6.6,2.1h-2.2C349.6,195.3,347.5,194.6,346,193.2z"/>
</g>
</svg>
