<svg xmlns="http://www.w3.org/2000/svg" xmlns:xlink="http://www.w3.org/1999/xlink" width="138" height="138" viewBox="0 0 138 138">
  <defs>
    <clipPath id="clip-path">
      <rect id="Rechteck_9" data-name="Rechteck 9" width="138" height="138" transform="translate(1037.609 1967.609)" fill="#fff"/>
    </clipPath>
  </defs>
  <g id="Gruppe_maskieren_2" data-name="Gruppe maskieren 2" transform="translate(-1037.609 -1967.609)" clip-path="url(#clip-path)">
    <path id="icons8-timesheet" d="M36.783,23.714A13.065,13.065,0,0,0,23.714,36.783v91.479A13.065,13.065,0,0,0,36.783,141.33H64.528a6.5,6.5,0,0,0,6.241-8.078c-.013-.046-.012-.1-.026-.14a6.343,6.343,0,0,0-6.253-4.85H36.783V56.385h91.479v8.1a6.35,6.35,0,0,0,4.85,6.253.735.735,0,0,1,.128.026,6.506,6.506,0,0,0,8.091-6.241V36.783a13.065,13.065,0,0,0-13.068-13.068ZM53.118,75.988a3.268,3.268,0,0,0-3.267,3.267v6.534a3.268,3.268,0,0,0,3.267,3.267h6.534a3.268,3.268,0,0,0,3.267-3.267V79.255a3.268,3.268,0,0,0-3.267-3.267Zm68.609,6.534a39.205,39.205,0,1,0,39.205,39.205A39.245,39.245,0,0,0,121.728,82.522Zm0,13.068a26.137,26.137,0,1,1-26.137,26.137A26.163,26.163,0,0,1,121.728,95.591Zm-68.609,6.534a3.268,3.268,0,0,0-3.267,3.267v6.534a3.268,3.268,0,0,0,3.267,3.267h6.534a3.268,3.268,0,0,0,3.267-3.267v-6.534a3.268,3.268,0,0,0-3.267-3.267Zm73.957,2.476a4.91,4.91,0,0,0-4.773,2.565l-6.534,12.252a4.9,4.9,0,0,0,.868,5.768l8.168,8.168a4.891,4.891,0,1,0,6.917-6.917l-5.59-5.6,4.824-9.048a4.886,4.886,0,0,0-3.88-7.185Z" transform="translate(1014.286 1944.286)" fill="#fff"/>
  </g>
</svg>
